<?xml version="1.0" standalone="no"?>
 <!DOCTYPE svg PUBLIC "-//W3C//DTD SVG 1.1//EN" 
 "http://www.w3.org/Graphics/SVG/1.1/DTD/svg11.dtd"> 
<svg xmlns="http://www.w3.org/2000/svg" version="1.1" 
    width="29.7002cm" height="21.0007cm" viewBox="0 0 116930 82680 ">
<title>SVG Picture created as relays-Relays.svg date 2019/02/04 02:12:09 </title>
  <desc>Picture generated by Eeschema-SVG </desc>
<g style="fill:#000000; fill-opacity:1;stroke:#000000; stroke-opacity:1;
stroke-linecap:round; stroke-linejoin:round; "
 transform="translate(0 0) scale(1 1)">
</g>
<g style="fill:#000000; fill-opacity:0.0; 
stroke:#000000; stroke-width:-10; stroke-opacity:1; 
stroke-linecap:round; stroke-linejoin:round;">
</g>
<g style="fill:#840000; fill-opacity:0.0; 
stroke:#840000; stroke-width:-10; stroke-opacity:1; 
stroke-linecap:round; stroke-linejoin:round;">
</g>
<g style="fill:#840000; fill-opacity:0.0; 
stroke:#840000; stroke-width:100; stroke-opacity:1; 
stroke-linecap:round; stroke-linejoin:round;">
</g>
<g style="fill:#840000; fill-opacity:0.0; 
stroke:#840000; stroke-width:60; stroke-opacity:1; 
stroke-linecap:round; stroke-linejoin:round;">
<rect x="69690" y="65360" width="42520" height="12600" rx="0" />
</g>
<g style="fill:#840000; fill-opacity:0.0; 
stroke:#840000; stroke-width:100; stroke-opacity:1; 
stroke-linecap:round; stroke-linejoin:round;">
</g>
<g style="fill:#840000; fill-opacity:0.0; 
stroke:#840000; stroke-width:60; stroke-opacity:1; 
stroke-linecap:round; stroke-linejoin:round;">
<rect x="3940" y="3940" width="109050" height="74800" rx="0" />
</g>
<g style="fill:#840000; fill-opacity:0.0; 
stroke:#840000; stroke-width:100; stroke-opacity:1; 
stroke-linecap:round; stroke-linejoin:round;">
</g>
<g style="fill:#840000; fill-opacity:0.0; 
stroke:#840000; stroke-width:60; stroke-opacity:1; 
stroke-linecap:round; stroke-linejoin:round;">
<rect x="4720" y="4720" width="107490" height="73240" rx="0" />
</g>
<g style="fill:#840000; fill-opacity:0.0; 
stroke:#840000; stroke-width:100; stroke-opacity:1; 
stroke-linecap:round; stroke-linejoin:round;">
</g>
<g style="fill:#840000; fill-opacity:0.0; 
stroke:#840000; stroke-width:60; stroke-opacity:1; 
stroke-linecap:round; stroke-linejoin:round;">
<path d="M23620 4720
L23620 3940
" />
</g>
<g style="fill:#840000; fill-opacity:0.0; 
stroke:#840000; stroke-width:100; stroke-opacity:1; 
stroke-linecap:round; stroke-linejoin:round;">
</g>
<g style="fill:#840000; fill-opacity:0.0; 
stroke:#840000; stroke-width:60; stroke-opacity:1; 
stroke-linecap:round; stroke-linejoin:round;">
<path d="M43310 4720
L43310 3940
" />
</g>
<g style="fill:#840000; fill-opacity:0.0; 
stroke:#840000; stroke-width:100; stroke-opacity:1; 
stroke-linecap:round; stroke-linejoin:round;">
</g>
<g style="fill:#840000; fill-opacity:0.0; 
stroke:#840000; stroke-width:60; stroke-opacity:1; 
stroke-linecap:round; stroke-linejoin:round;">
<path d="M62990 4720
L62990 3940
" />
</g>
<g style="fill:#840000; fill-opacity:0.0; 
stroke:#840000; stroke-width:100; stroke-opacity:1; 
stroke-linecap:round; stroke-linejoin:round;">
</g>
<g style="fill:#840000; fill-opacity:0.0; 
stroke:#840000; stroke-width:60; stroke-opacity:1; 
stroke-linecap:round; stroke-linejoin:round;">
<path d="M82680 4720
L82680 3940
" />
</g>
<g style="fill:#840000; fill-opacity:0.0; 
stroke:#840000; stroke-width:100; stroke-opacity:1; 
stroke-linecap:round; stroke-linejoin:round;">
</g>
<g style="fill:#840000; fill-opacity:0.0; 
stroke:#840000; stroke-width:60; stroke-opacity:1; 
stroke-linecap:round; stroke-linejoin:round;">
<path d="M102360 4720
L102360 3940
" />
</g>
<g style="fill:#840000; fill-opacity:0.0; 
stroke:#840000; stroke-width:100; stroke-opacity:1; 
stroke-linecap:round; stroke-linejoin:round;">
</g>
<g style="fill:#840000; fill-opacity:0.0; 
stroke:#840000; stroke-width:60; stroke-opacity:1; 
stroke-linecap:round; stroke-linejoin:round;">
<path d="M14190 4560
L13900 4560
" />
<path d="M14050 4560
L14050 4050
L14000 4120
L13950 4170
L13900 4190
" />
</g>
<g style="fill:#840000; fill-opacity:0.0; 
stroke:#840000; stroke-width:100; stroke-opacity:1; 
stroke-linecap:round; stroke-linejoin:round;">
</g>
<g style="fill:#840000; fill-opacity:0.0; 
stroke:#840000; stroke-width:60; stroke-opacity:1; 
stroke-linecap:round; stroke-linejoin:round;">
<path d="M33580 4090
L33610 4070
L33660 4050
L33780 4050
L33830 4070
L33850 4090
L33870 4140
L33870 4190
L33850 4260
L33560 4560
L33870 4560
" />
</g>
<g style="fill:#840000; fill-opacity:0.0; 
stroke:#840000; stroke-width:100; stroke-opacity:1; 
stroke-linecap:round; stroke-linejoin:round;">
</g>
<g style="fill:#840000; fill-opacity:0.0; 
stroke:#840000; stroke-width:60; stroke-opacity:1; 
stroke-linecap:round; stroke-linejoin:round;">
<path d="M53250 4050
L53560 4050
L53390 4240
L53470 4240
L53520 4260
L53540 4290
L53560 4340
L53560 4460
L53540 4510
L53520 4530
L53470 4560
L53320 4560
L53270 4530
L53250 4510
" />
</g>
<g style="fill:#840000; fill-opacity:0.0; 
stroke:#840000; stroke-width:100; stroke-opacity:1; 
stroke-linecap:round; stroke-linejoin:round;">
</g>
<g style="fill:#840000; fill-opacity:0.0; 
stroke:#840000; stroke-width:60; stroke-opacity:1; 
stroke-linecap:round; stroke-linejoin:round;">
<path d="M73200 4220
L73200 4560
" />
<path d="M73070 4020
L72950 4390
L73270 4390
" />
</g>
<g style="fill:#840000; fill-opacity:0.0; 
stroke:#840000; stroke-width:100; stroke-opacity:1; 
stroke-linecap:round; stroke-linejoin:round;">
</g>
<g style="fill:#840000; fill-opacity:0.0; 
stroke:#840000; stroke-width:60; stroke-opacity:1; 
stroke-linecap:round; stroke-linejoin:round;">
<path d="M92910 4050
L92670 4050
L92640 4290
L92670 4260
L92720 4240
L92840 4240
L92890 4260
L92910 4290
L92930 4340
L92930 4460
L92910 4510
L92890 4530
L92840 4560
L92720 4560
L92670 4530
L92640 4510
" />
</g>
<g style="fill:#840000; fill-opacity:0.0; 
stroke:#840000; stroke-width:100; stroke-opacity:1; 
stroke-linecap:round; stroke-linejoin:round;">
</g>
<g style="fill:#840000; fill-opacity:0.0; 
stroke:#840000; stroke-width:60; stroke-opacity:1; 
stroke-linecap:round; stroke-linejoin:round;">
<path d="M112570 4050
L112470 4050
L112420 4070
L112400 4090
L112350 4170
L112320 4260
L112320 4460
L112350 4510
L112370 4530
L112420 4560
L112520 4560
L112570 4530
L112590 4510
L112610 4460
L112610 4340
L112590 4290
L112570 4260
L112520 4240
L112420 4240
L112370 4260
L112350 4290
L112320 4340
" />
</g>
<g style="fill:#840000; fill-opacity:0.0; 
stroke:#840000; stroke-width:100; stroke-opacity:1; 
stroke-linecap:round; stroke-linejoin:round;">
</g>
<g style="fill:#840000; fill-opacity:0.0; 
stroke:#840000; stroke-width:60; stroke-opacity:1; 
stroke-linecap:round; stroke-linejoin:round;">
<path d="M23620 77960
L23620 78740
" />
</g>
<g style="fill:#840000; fill-opacity:0.0; 
stroke:#840000; stroke-width:100; stroke-opacity:1; 
stroke-linecap:round; stroke-linejoin:round;">
</g>
<g style="fill:#840000; fill-opacity:0.0; 
stroke:#840000; stroke-width:60; stroke-opacity:1; 
stroke-linecap:round; stroke-linejoin:round;">
<path d="M43310 77960
L43310 78740
" />
</g>
<g style="fill:#840000; fill-opacity:0.0; 
stroke:#840000; stroke-width:100; stroke-opacity:1; 
stroke-linecap:round; stroke-linejoin:round;">
</g>
<g style="fill:#840000; fill-opacity:0.0; 
stroke:#840000; stroke-width:60; stroke-opacity:1; 
stroke-linecap:round; stroke-linejoin:round;">
<path d="M62990 77960
L62990 78740
" />
</g>
<g style="fill:#840000; fill-opacity:0.0; 
stroke:#840000; stroke-width:100; stroke-opacity:1; 
stroke-linecap:round; stroke-linejoin:round;">
</g>
<g style="fill:#840000; fill-opacity:0.0; 
stroke:#840000; stroke-width:60; stroke-opacity:1; 
stroke-linecap:round; stroke-linejoin:round;">
<path d="M82680 77960
L82680 78740
" />
</g>
<g style="fill:#840000; fill-opacity:0.0; 
stroke:#840000; stroke-width:100; stroke-opacity:1; 
stroke-linecap:round; stroke-linejoin:round;">
</g>
<g style="fill:#840000; fill-opacity:0.0; 
stroke:#840000; stroke-width:60; stroke-opacity:1; 
stroke-linecap:round; stroke-linejoin:round;">
<path d="M102360 77960
L102360 78740
" />
</g>
<g style="fill:#840000; fill-opacity:0.0; 
stroke:#840000; stroke-width:100; stroke-opacity:1; 
stroke-linecap:round; stroke-linejoin:round;">
</g>
<g style="fill:#840000; fill-opacity:0.0; 
stroke:#840000; stroke-width:60; stroke-opacity:1; 
stroke-linecap:round; stroke-linejoin:round;">
<path d="M14190 78580
L13900 78580
" />
<path d="M14050 78580
L14050 78070
L14000 78140
L13950 78190
L13900 78210
" />
</g>
<g style="fill:#840000; fill-opacity:0.0; 
stroke:#840000; stroke-width:100; stroke-opacity:1; 
stroke-linecap:round; stroke-linejoin:round;">
</g>
<g style="fill:#840000; fill-opacity:0.0; 
stroke:#840000; stroke-width:60; stroke-opacity:1; 
stroke-linecap:round; stroke-linejoin:round;">
<path d="M33580 78110
L33610 78090
L33660 78070
L33780 78070
L33830 78090
L33850 78110
L33870 78160
L33870 78210
L33850 78280
L33560 78580
L33870 78580
" />
</g>
<g style="fill:#840000; fill-opacity:0.0; 
stroke:#840000; stroke-width:100; stroke-opacity:1; 
stroke-linecap:round; stroke-linejoin:round;">
</g>
<g style="fill:#840000; fill-opacity:0.0; 
stroke:#840000; stroke-width:60; stroke-opacity:1; 
stroke-linecap:round; stroke-linejoin:round;">
<path d="M53250 78070
L53560 78070
L53390 78260
L53470 78260
L53520 78280
L53540 78310
L53560 78360
L53560 78480
L53540 78530
L53520 78550
L53470 78580
L53320 78580
L53270 78550
L53250 78530
" />
</g>
<g style="fill:#840000; fill-opacity:0.0; 
stroke:#840000; stroke-width:100; stroke-opacity:1; 
stroke-linecap:round; stroke-linejoin:round;">
</g>
<g style="fill:#840000; fill-opacity:0.0; 
stroke:#840000; stroke-width:60; stroke-opacity:1; 
stroke-linecap:round; stroke-linejoin:round;">
<path d="M73200 78240
L73200 78580
" />
<path d="M73070 78040
L72950 78410
L73270 78410
" />
</g>
<g style="fill:#840000; fill-opacity:0.0; 
stroke:#840000; stroke-width:100; stroke-opacity:1; 
stroke-linecap:round; stroke-linejoin:round;">
</g>
<g style="fill:#840000; fill-opacity:0.0; 
stroke:#840000; stroke-width:60; stroke-opacity:1; 
stroke-linecap:round; stroke-linejoin:round;">
<path d="M92910 78070
L92670 78070
L92640 78310
L92670 78280
L92720 78260
L92840 78260
L92890 78280
L92910 78310
L92930 78360
L92930 78480
L92910 78530
L92890 78550
L92840 78580
L92720 78580
L92670 78550
L92640 78530
" />
</g>
<g style="fill:#840000; fill-opacity:0.0; 
stroke:#840000; stroke-width:100; stroke-opacity:1; 
stroke-linecap:round; stroke-linejoin:round;">
</g>
<g style="fill:#840000; fill-opacity:0.0; 
stroke:#840000; stroke-width:60; stroke-opacity:1; 
stroke-linecap:round; stroke-linejoin:round;">
<path d="M112570 78070
L112470 78070
L112420 78090
L112400 78110
L112350 78190
L112320 78280
L112320 78480
L112350 78530
L112370 78550
L112420 78580
L112520 78580
L112570 78550
L112590 78530
L112610 78480
L112610 78360
L112590 78310
L112570 78280
L112520 78260
L112420 78260
L112370 78280
L112350 78310
L112320 78360
" />
</g>
<g style="fill:#840000; fill-opacity:0.0; 
stroke:#840000; stroke-width:100; stroke-opacity:1; 
stroke-linecap:round; stroke-linejoin:round;">
</g>
<g style="fill:#840000; fill-opacity:0.0; 
stroke:#840000; stroke-width:60; stroke-opacity:1; 
stroke-linecap:round; stroke-linejoin:round;">
<path d="M3940 23620
L4720 23620
" />
</g>
<g style="fill:#840000; fill-opacity:0.0; 
stroke:#840000; stroke-width:100; stroke-opacity:1; 
stroke-linecap:round; stroke-linejoin:round;">
</g>
<g style="fill:#840000; fill-opacity:0.0; 
stroke:#840000; stroke-width:60; stroke-opacity:1; 
stroke-linecap:round; stroke-linejoin:round;">
<path d="M3940 43310
L4720 43310
" />
</g>
<g style="fill:#840000; fill-opacity:0.0; 
stroke:#840000; stroke-width:100; stroke-opacity:1; 
stroke-linecap:round; stroke-linejoin:round;">
</g>
<g style="fill:#840000; fill-opacity:0.0; 
stroke:#840000; stroke-width:60; stroke-opacity:1; 
stroke-linecap:round; stroke-linejoin:round;">
<path d="M3940 62990
L4720 62990
" />
</g>
<g style="fill:#840000; fill-opacity:0.0; 
stroke:#840000; stroke-width:100; stroke-opacity:1; 
stroke-linecap:round; stroke-linejoin:round;">
</g>
<g style="fill:#840000; fill-opacity:0.0; 
stroke:#840000; stroke-width:60; stroke-opacity:1; 
stroke-linecap:round; stroke-linejoin:round;">
<path d="M4200 13860
L4450 13860
" />
<path d="M4160 14010
L4330 13500
L4500 14010
" />
</g>
<g style="fill:#840000; fill-opacity:0.0; 
stroke:#840000; stroke-width:100; stroke-opacity:1; 
stroke-linecap:round; stroke-linejoin:round;">
</g>
<g style="fill:#840000; fill-opacity:0.0; 
stroke:#840000; stroke-width:60; stroke-opacity:1; 
stroke-linecap:round; stroke-linejoin:round;">
<path d="M4360 33420
L4430 33440
L4460 33470
L4480 33520
L4480 33590
L4460 33640
L4430 33660
L4390 33690
L4190 33690
L4190 33180
L4360 33180
L4410 33200
L4430 33220
L4460 33270
L4460 33320
L4430 33370
L4410 33390
L4360 33420
L4190 33420
" />
</g>
<g style="fill:#840000; fill-opacity:0.0; 
stroke:#840000; stroke-width:100; stroke-opacity:1; 
stroke-linecap:round; stroke-linejoin:round;">
</g>
<g style="fill:#840000; fill-opacity:0.0; 
stroke:#840000; stroke-width:60; stroke-opacity:1; 
stroke-linecap:round; stroke-linejoin:round;">
<path d="M4480 53330
L4460 53350
L4390 53380
L4340 53380
L4260 53350
L4220 53300
L4190 53250
L4170 53160
L4170 53080
L4190 52990
L4220 52940
L4260 52890
L4340 52870
L4390 52870
L4460 52890
L4480 52910
" />
</g>
<g style="fill:#840000; fill-opacity:0.0; 
stroke:#840000; stroke-width:100; stroke-opacity:1; 
stroke-linecap:round; stroke-linejoin:round;">
</g>
<g style="fill:#840000; fill-opacity:0.0; 
stroke:#840000; stroke-width:60; stroke-opacity:1; 
stroke-linecap:round; stroke-linejoin:round;">
<path d="M4190 73060
L4190 72550
L4310 72550
L4390 72570
L4430 72620
L4460 72670
L4480 72760
L4480 72840
L4460 72930
L4430 72980
L4390 73030
L4310 73060
L4190 73060
" />
</g>
<g style="fill:#840000; fill-opacity:0.0; 
stroke:#840000; stroke-width:100; stroke-opacity:1; 
stroke-linecap:round; stroke-linejoin:round;">
</g>
<g style="fill:#840000; fill-opacity:0.0; 
stroke:#840000; stroke-width:60; stroke-opacity:1; 
stroke-linecap:round; stroke-linejoin:round;">
<path d="M112990 23620
L112210 23620
" />
</g>
<g style="fill:#840000; fill-opacity:0.0; 
stroke:#840000; stroke-width:100; stroke-opacity:1; 
stroke-linecap:round; stroke-linejoin:round;">
</g>
<g style="fill:#840000; fill-opacity:0.0; 
stroke:#840000; stroke-width:60; stroke-opacity:1; 
stroke-linecap:round; stroke-linejoin:round;">
<path d="M112990 43310
L112210 43310
" />
</g>
<g style="fill:#840000; fill-opacity:0.0; 
stroke:#840000; stroke-width:100; stroke-opacity:1; 
stroke-linecap:round; stroke-linejoin:round;">
</g>
<g style="fill:#840000; fill-opacity:0.0; 
stroke:#840000; stroke-width:60; stroke-opacity:1; 
stroke-linecap:round; stroke-linejoin:round;">
<path d="M112990 62990
L112210 62990
" />
</g>
<g style="fill:#840000; fill-opacity:0.0; 
stroke:#840000; stroke-width:100; stroke-opacity:1; 
stroke-linecap:round; stroke-linejoin:round;">
</g>
<g style="fill:#840000; fill-opacity:0.0; 
stroke:#840000; stroke-width:60; stroke-opacity:1; 
stroke-linecap:round; stroke-linejoin:round;">
<path d="M112470 13860
L112720 13860
" />
<path d="M112430 14010
L112600 13500
L112770 14010
" />
</g>
<g style="fill:#840000; fill-opacity:0.0; 
stroke:#840000; stroke-width:100; stroke-opacity:1; 
stroke-linecap:round; stroke-linejoin:round;">
</g>
<g style="fill:#840000; fill-opacity:0.0; 
stroke:#840000; stroke-width:60; stroke-opacity:1; 
stroke-linecap:round; stroke-linejoin:round;">
<path d="M112630 33420
L112700 33440
L112730 33470
L112750 33520
L112750 33590
L112730 33640
L112700 33660
L112660 33690
L112460 33690
L112460 33180
L112630 33180
L112680 33200
L112700 33220
L112730 33270
L112730 33320
L112700 33370
L112680 33390
L112630 33420
L112460 33420
" />
</g>
<g style="fill:#840000; fill-opacity:0.0; 
stroke:#840000; stroke-width:100; stroke-opacity:1; 
stroke-linecap:round; stroke-linejoin:round;">
</g>
<g style="fill:#840000; fill-opacity:0.0; 
stroke:#840000; stroke-width:60; stroke-opacity:1; 
stroke-linecap:round; stroke-linejoin:round;">
<path d="M112750 53330
L112730 53350
L112660 53380
L112610 53380
L112530 53350
L112490 53300
L112460 53250
L112440 53160
L112440 53080
L112460 52990
L112490 52940
L112530 52890
L112610 52870
L112660 52870
L112730 52890
L112750 52910
" />
</g>
<g style="fill:#840000; fill-opacity:0.0; 
stroke:#840000; stroke-width:100; stroke-opacity:1; 
stroke-linecap:round; stroke-linejoin:round;">
</g>
<g style="fill:#840000; fill-opacity:0.0; 
stroke:#840000; stroke-width:60; stroke-opacity:1; 
stroke-linecap:round; stroke-linejoin:round;">
<path d="M112460 73060
L112460 72550
L112580 72550
L112660 72570
L112700 72620
L112730 72670
L112750 72760
L112750 72840
L112730 72930
L112700 72980
L112660 73030
L112580 73060
L112460 73060
" />
</g>
<g style="fill:#840000; fill-opacity:0.0; 
stroke:#840000; stroke-width:100; stroke-opacity:1; 
stroke-linecap:round; stroke-linejoin:round;">
</g>
<g style="fill:#840000; fill-opacity:0.0; 
stroke:#840000; stroke-width:60; stroke-opacity:1; 
stroke-linecap:round; stroke-linejoin:round;">
<path d="M78910 76290
L78910 75700
L79050 75700
L79130 75730
L79190 75790
L79210 75840
L79240 75950
L79240 76040
L79210 76150
L79190 76210
L79130 76260
L79050 76290
L78910 76290
" />
<path d="M79750 76290
L79750 75980
L79720 75930
L79660 75900
L79550 75900
L79500 75930
" />
<path d="M79750 76260
L79690 76290
L79550 76290
L79500 76260
L79470 76210
L79470 76150
L79500 76100
L79550 76070
L79690 76070
L79750 76040
" />
<path d="M79950 75900
L80170 75900
" />
<path d="M80030 75700
L80030 76210
L80060 76260
L80110 76290
L80170 76290
" />
<path d="M80590 76260
L80540 76290
L80420 76290
L80370 76260
L80340 76210
L80340 75980
L80370 75930
L80420 75900
L80540 75900
L80590 75930
L80620 75980
L80620 76040
L80340 76100
" />
<path d="M80870 76240
L80900 76260
L80870 76290
L80840 76260
L80870 76240
L80870 76290
" />
<path d="M80870 75930
L80900 75950
L80870 75980
L80840 75950
L80870 75930
L80870 75980
" />
<path d="M81570 75760
L81600 75730
L81660 75700
L81800 75700
L81860 75730
L81880 75760
L81910 75810
L81910 75870
L81880 75950
L81550 76290
L81910 76290
" />
<path d="M82280 75700
L82330 75700
L82390 75730
L82420 75760
L82450 75810
L82470 75930
L82470 76070
L82450 76180
L82420 76240
L82390 76260
L82330 76290
L82280 76290
L82220 76260
L82190 76240
L82160 76180
L82140 76070
L82140 75930
L82160 75810
L82190 75760
L82220 75730
L82280 75700
" />
<path d="M83040 76290
L82700 76290
" />
<path d="M82870 76290
L82870 75700
L82810 75790
L82750 75840
L82700 75870
" />
<path d="M83320 76290
L83430 76290
L83490 76260
L83510 76240
L83570 76150
L83600 76040
L83600 75810
L83570 75760
L83540 75730
L83490 75700
L83370 75700
L83320 75730
L83290 75760
L83260 75810
L83260 75950
L83290 76010
L83320 76040
L83370 76070
L83490 76070
L83540 76040
L83570 76010
L83600 75950
" />
<path d="M83850 76070
L84300 76070
" />
<path d="M84690 75700
L84750 75700
L84810 75730
L84830 75760
L84860 75810
L84890 75930
L84890 76070
L84860 76180
L84830 76240
L84810 76260
L84750 76290
L84690 76290
L84640 76260
L84610 76240
L84580 76180
L84550 76070
L84550 75930
L84580 75810
L84610 75760
L84640 75730
L84690 75700
" />
<path d="M85110 75760
L85140 75730
L85200 75700
L85340 75700
L85400 75730
L85420 75760
L85450 75810
L85450 75870
L85420 75950
L85090 76290
L85450 76290
" />
<path d="M85700 76070
L86150 76070
" />
<path d="M86550 75700
L86600 75700
L86660 75730
L86690 75760
L86720 75810
L86740 75930
L86740 76070
L86720 76180
L86690 76240
L86660 76260
L86600 76290
L86550 76290
L86490 76260
L86460 76240
L86440 76180
L86410 76070
L86410 75930
L86440 75810
L86460 75760
L86490 75730
L86550 75700
" />
<path d="M87250 75900
L87250 76290
" />
<path d="M87110 75670
L86970 76100
L87330 76100
" />
</g>
<g style="fill:#840000; fill-opacity:0.0; 
stroke:#840000; stroke-width:100; stroke-opacity:1; 
stroke-linecap:round; stroke-linejoin:round;">
</g>
<g style="fill:#840000; fill-opacity:0.0; 
stroke:#840000; stroke-width:60; stroke-opacity:1; 
stroke-linecap:round; stroke-linejoin:round;">
<path d="M69690 76580
L112210 76580
" />
</g>
<g style="fill:#840000; fill-opacity:0.0; 
stroke:#840000; stroke-width:100; stroke-opacity:1; 
stroke-linecap:round; stroke-linejoin:round;">
</g>
<g style="fill:#840000; fill-opacity:0.0; 
stroke:#840000; stroke-width:60; stroke-opacity:1; 
stroke-linecap:round; stroke-linejoin:round;">
<path d="M70250 77390
L70250 76800
" />
<path d="M70580 77390
L70330 77050
" />
<path d="M70580 76800
L70250 77140
" />
<path d="M70840 77390
L70840 77000
" />
<path d="M70840 76800
L70810 76830
L70840 76860
L70860 76830
L70840 76800
L70840 76860
" />
<path d="M71450 77340
L71430 77360
L71340 77390
L71290 77390
L71200 77360
L71140 77310
L71120 77250
L71090 77140
L71090 77050
L71120 76940
L71140 76890
L71200 76830
L71290 76800
L71340 76800
L71430 76830
L71450 76860
" />
<path d="M71960 77390
L71960 77080
L71930 77030
L71880 77000
L71760 77000
L71710 77030
" />
<path d="M71960 77360
L71900 77390
L71760 77390
L71710 77360
L71680 77310
L71680 77250
L71710 77200
L71760 77170
L71900 77170
L71960 77140
" />
<path d="M72490 77390
L72490 76800
" />
<path d="M72490 77360
L72440 77390
L72320 77390
L72270 77360
L72240 77340
L72210 77280
L72210 77110
L72240 77050
L72270 77030
L72320 77000
L72440 77000
L72490 77030
" />
<path d="M73220 77080
L73420 77080
" />
<path d="M73500 77390
L73220 77390
L73220 76800
L73500 76800
" />
<path d="M73760 77340
L73790 77360
L73760 77390
L73730 77360
L73760 77340
L73760 77390
" />
<path d="M74040 77390
L74040 76800
L74180 76800
L74260 76830
L74320 76890
L74350 76940
L74380 77050
L74380 77140
L74350 77250
L74320 77310
L74260 77360
L74180 77390
L74040 77390
" />
<path d="M74630 77340
L74660 77360
L74630 77390
L74600 77360
L74630 77340
L74630 77390
" />
<path d="M74880 77220
L75160 77220
" />
<path d="M74830 77390
L75020 76800
L75220 77390
" />
<path d="M75420 77340
L75440 77360
L75420 77390
L75390 77360
L75420 77340
L75420 77390
" />
<path d="M76600 77390
L76600 76800
" />
<path d="M76650 77170
L76820 77390
" />
<path d="M76820 77000
L76600 77220
" />
<path d="M77070 77390
L77070 77000
" />
<path d="M77070 76800
L77040 76830
L77070 76860
L77100 76830
L77070 76800
L77070 76860
" />
<path d="M77610 77360
L77550 77390
L77440 77390
L77380 77360
L77350 77340
L77330 77280
L77330 77110
L77350 77050
L77380 77030
L77440 77000
L77550 77000
L77610 77030
" />
<path d="M78110 77390
L78110 77080
L78080 77030
L78030 77000
L77920 77000
L77860 77030
" />
<path d="M78110 77360
L78060 77390
L77920 77390
L77860 77360
L77830 77310
L77830 77250
L77860 77200
L77920 77170
L78060 77170
L78110 77140
" />
<path d="M78650 77390
L78650 76800
" />
<path d="M78650 77360
L78590 77390
L78480 77390
L78420 77360
L78390 77340
L78370 77280
L78370 77110
L78390 77050
L78420 77030
L78480 77000
L78590 77000
L78650 77030
" />
<path d="M79660 76800
L79380 76800
L79350 77080
L79380 77050
L79430 77030
L79570 77030
L79630 77050
L79660 77080
L79690 77140
L79690 77280
L79660 77340
L79630 77360
L79570 77390
L79430 77390
L79380 77360
L79350 77340
" />
<path d="M79940 77340
L79970 77360
L79940 77390
L79910 77360
L79940 77340
L79940 77390
" />
<path d="M80330 76800
L80390 76800
L80440 76830
L80470 76860
L80500 76910
L80530 77030
L80530 77170
L80500 77280
L80470 77340
L80440 77360
L80390 77390
L80330 77390
L80280 77360
L80250 77340
L80220 77280
L80190 77170
L80190 77030
L80220 76910
L80250 76860
L80280 76830
L80330 76800
" />
<path d="M80780 77340
L80810 77360
L80780 77390
L80750 77360
L80780 77340
L80780 77390
" />
<path d="M81370 77390
L81030 77390
" />
<path d="M81200 77390
L81200 76800
L81150 76890
L81090 76940
L81030 76970
" />
</g>
<g style="fill:#840000; fill-opacity:0.0; 
stroke:#840000; stroke-width:100; stroke-opacity:1; 
stroke-linecap:round; stroke-linejoin:round;">
</g>
<g style="fill:#840000; fill-opacity:0.0; 
stroke:#840000; stroke-width:60; stroke-opacity:1; 
stroke-linecap:round; stroke-linejoin:round;">
<path d="M69690 75400
L112210 75400
" />
</g>
<g style="fill:#840000; fill-opacity:0.0; 
stroke:#840000; stroke-width:100; stroke-opacity:1; 
stroke-linecap:round; stroke-linejoin:round;">
</g>
<g style="fill:#840000; fill-opacity:0.0; 
stroke:#840000; stroke-width:120; stroke-opacity:1; 
stroke-linecap:round; stroke-linejoin:round;">
<path d="M104090 76290
L103890 76010
" />
<path d="M103750 76290
L103750 75700
L103980 75700
L104030 75730
L104060 75760
L104090 75810
L104090 75900
L104060 75950
L104030 75980
L103980 76010
L103750 76010
" />
<path d="M104570 76260
L104510 76290
L104400 76290
L104340 76260
L104320 76210
L104320 75980
L104340 75930
L104400 75900
L104510 75900
L104570 75930
L104600 75980
L104600 76040
L104320 76100
" />
<path d="M104790 75900
L104930 76290
L105070 75900
" />
<path d="M105300 76240
L105330 76260
L105300 76290
L105270 76260
L105300 76240
L105300 76290
" />
<path d="M105300 75930
L105330 75950
L105300 75980
L105270 75950
L105300 75930
L105300 75980
" />
<path d="M106140 75700
L106200 75700
L106250 75730
L106280 75760
L106310 75810
L106340 75930
L106340 76070
L106310 76180
L106280 76240
L106250 76260
L106200 76290
L106140 76290
L106090 76260
L106060 76240
L106030 76180
L106000 76070
L106000 75930
L106030 75810
L106060 75760
L106090 75730
L106140 75700
" />
<path d="M106590 76240
L106620 76260
L106590 76290
L106560 76260
L106590 76240
L106590 76290
" />
<path d="M107180 76290
L106840 76290
" />
<path d="M107010 76290
L107010 75700
L106960 75790
L106900 75840
L106840 75870
" />
</g>
<g style="fill:#840000; fill-opacity:0.0; 
stroke:#840000; stroke-width:100; stroke-opacity:1; 
stroke-linecap:round; stroke-linejoin:round;">
</g>
<g style="fill:#840000; fill-opacity:0.0; 
stroke:#840000; stroke-width:60; stroke-opacity:1; 
stroke-linecap:round; stroke-linejoin:round;">
<path d="M70220 76260
L70300 76290
L70440 76290
L70500 76260
L70530 76240
L70550 76180
L70550 76120
L70530 76070
L70500 76040
L70440 76010
L70330 75980
L70270 75950
L70250 75930
L70220 75870
L70220 75810
L70250 75760
L70270 75730
L70330 75700
L70470 75700
L70550 75730
" />
<path d="M70810 76290
L70810 75900
" />
<path d="M70810 75700
L70780 75730
L70810 75760
L70840 75730
L70810 75700
L70810 75760
" />
<path d="M71030 75900
L71340 75900
L71030 76290
L71340 76290
" />
<path d="M71790 76260
L71730 76290
L71620 76290
L71570 76260
L71540 76210
L71540 75980
L71570 75930
L71620 75900
L71730 75900
L71790 75930
L71820 75980
L71820 76040
L71540 76100
" />
<path d="M72070 76240
L72100 76260
L72070 76290
L72040 76260
L72070 76240
L72070 76290
" />
<path d="M72070 75930
L72100 75950
L72070 75980
L72040 75950
L72070 75930
L72070 75980
" />
<path d="M72770 76120
L73060 76120
" />
<path d="M72720 76290
L72910 75700
L73110 76290
" />
<path d="M73560 75900
L73560 76290
" />
<path d="M73420 75670
L73280 76100
L73650 76100
" />
</g>
<g style="fill:#840000; fill-opacity:0.0; 
stroke:#840000; stroke-width:100; stroke-opacity:1; 
stroke-linecap:round; stroke-linejoin:round;">
</g>
<g style="fill:#840000; fill-opacity:0.0; 
stroke:#840000; stroke-width:60; stroke-opacity:1; 
stroke-linecap:round; stroke-linejoin:round;">
<path d="M103710 77390
L103710 76800
" />
<path d="M104240 77390
L104240 76800
" />
<path d="M104240 77360
L104180 77390
L104070 77390
L104010 77360
L103990 77340
L103960 77280
L103960 77110
L103990 77050
L104010 77030
L104070 77000
L104180 77000
L104240 77030
" />
<path d="M104520 77340
L104550 77360
L104520 77390
L104490 77360
L104520 77340
L104520 77390
" />
<path d="M104520 77030
L104550 77050
L104520 77080
L104490 77050
L104520 77030
L104520 77080
" />
<path d="M105190 76800
L105560 76800
L105360 77030
L105450 77030
L105500 77050
L105530 77080
L105560 77140
L105560 77280
L105530 77340
L105500 77360
L105450 77390
L105280 77390
L105220 77360
L105190 77340
" />
<path d="M106230 76770
L105730 77530
" />
<path d="M106370 76800
L106740 76800
L106540 77030
L106630 77030
L106680 77050
L106710 77080
L106740 77140
L106740 77280
L106710 77340
L106680 77360
L106630 77390
L106460 77390
L106400 77360
L106370 77340
" />
</g>
<g style="fill:#840000; fill-opacity:0.0; 
stroke:#840000; stroke-width:100; stroke-opacity:1; 
stroke-linecap:round; stroke-linejoin:round;">
</g>
<g style="fill:#840000; fill-opacity:0.0; 
stroke:#840000; stroke-width:60; stroke-opacity:1; 
stroke-linecap:round; stroke-linejoin:round;">
<path d="M69690 73820
L112210 73820
" />
</g>
<g style="fill:#840000; fill-opacity:0.0; 
stroke:#840000; stroke-width:100; stroke-opacity:1; 
stroke-linecap:round; stroke-linejoin:round;">
</g>
<g style="fill:#840000; fill-opacity:0.0; 
stroke:#840000; stroke-width:160; stroke-opacity:1; 
stroke-linecap:round; stroke-linejoin:round;">
<path d="M70360 74090
L70810 74090
" />
<path d="M70480 74880
L70580 74090
" />
<path d="M70970 74880
L71040 74360
" />
<path d="M71070 74090
L71030 74130
L71060 74170
L71110 74130
L71070 74090
L71060 74170
" />
<path d="M71300 74360
L71600 74360
" />
<path d="M71450 74090
L71360 74770
L71390 74840
L71460 74880
L71540 74880
" />
<path d="M71910 74880
L71840 74840
L71820 74770
L71900 74090
" />
<path d="M72520 74840
L72440 74880
L72290 74880
L72220 74840
L72190 74770
L72230 74470
L72280 74390
L72360 74360
L72510 74360
L72580 74390
L72610 74470
L72600 74540
L72210 74620
" />
<path d="M72900 74810
L72930 74840
L72890 74880
L72860 74840
L72900 74810
L72890 74880
" />
<path d="M72950 74390
L72990 74430
L72940 74470
L72910 74430
L72950 74390
L72940 74470
" />
<path d="M74320 74880
L74110 74510
" />
<path d="M73870 74880
L73970 74090
L74270 74090
L74340 74130
L74370 74170
L74400 74240
L74390 74360
L74340 74430
L74300 74470
L74220 74510
L73920 74510
" />
<path d="M74970 74840
L74890 74880
L74740 74880
L74670 74840
L74640 74770
L74670 74470
L74720 74390
L74800 74360
L74950 74360
L75020 74390
L75050 74470
L75040 74540
L74660 74620
" />
<path d="M75450 74880
L75380 74840
L75350 74770
L75440 74090
" />
<path d="M76090 74880
L76140 74470
L76110 74390
L76040 74360
L75890 74360
L75810 74390
" />
<path d="M76090 74840
L76010 74880
L75830 74880
L75760 74840
L75730 74770
L75740 74690
L75780 74620
L75860 74580
L76050 74580
L76130 74540
" />
<path d="M76460 74360
L76580 74880
" />
<path d="M76830 74360
L76580 74880
L76480 75070
L76440 75110
L76360 75150
" />
<path d="M77040 74840
L77110 74880
L77260 74880
L77340 74840
L77380 74770
L77390 74730
L77360 74660
L77290 74620
L77180 74620
L77110 74580
L77080 74510
L77080 74470
L77130 74390
L77210 74360
L77320 74360
L77390 74390
" />
</g>
<g style="fill:#840000; fill-opacity:0.0; 
stroke:#840000; stroke-width:100; stroke-opacity:1; 
stroke-linecap:round; stroke-linejoin:round;">
</g>
<g style="fill:#840000; fill-opacity:0.0; 
stroke:#840000; stroke-width:60; stroke-opacity:1; 
stroke-linecap:round; stroke-linejoin:round;">
<path d="M70440 73060
L70250 73060
" />
<path d="M70250 73370
L70250 72780
L70530 72780
" />
<path d="M70750 73370
L70750 72980
" />
<path d="M70750 72780
L70720 72810
L70750 72840
L70780 72810
L70750 72780
L70750 72840
" />
<path d="M71120 73370
L71060 73340
L71030 73290
L71030 72780
" />
<path d="M71570 73340
L71510 73370
L71400 73370
L71340 73340
L71310 73290
L71310 73060
L71340 73010
L71400 72980
L71510 72980
L71570 73010
L71590 73060
L71590 73120
L71310 73180
" />
<path d="M71850 73320
L71880 73340
L71850 73370
L71820 73340
L71850 73320
L71850 73370
" />
<path d="M71850 73010
L71880 73030
L71850 73060
L71820 73030
L71850 73010
L71850 73060
" />
<path d="M72580 73370
L72580 72980
" />
<path d="M72580 73090
L72610 73030
L72630 73010
L72690 72980
L72750 72980
" />
<path d="M73170 73340
L73110 73370
L73000 73370
L72940 73340
L72910 73290
L72910 73060
L72940 73010
L73000 72980
L73110 72980
L73170 73010
L73200 73060
L73200 73120
L72910 73180
" />
<path d="M73530 73370
L73480 73340
L73450 73290
L73450 72780
" />
<path d="M74010 73370
L74010 73060
L73980 73010
L73930 72980
L73810 72980
L73760 73010
" />
<path d="M74010 73340
L73950 73370
L73810 73370
L73760 73340
L73730 73290
L73730 73230
L73760 73180
L73810 73150
L73950 73150
L74010 73120
" />
<path d="M74240 72980
L74380 73370
" />
<path d="M74520 72980
L74380 73370
L74320 73510
L74290 73540
L74240 73570
" />
<path d="M74710 73340
L74770 73370
L74880 73370
L74940 73340
L74970 73290
L74970 73260
L74940 73200
L74880 73180
L74800 73180
L74740 73150
L74710 73090
L74710 73060
L74740 73010
L74800 72980
L74880 72980
L74940 73010
" />
<path d="M75220 73320
L75250 73340
L75220 73370
L75190 73340
L75220 73320
L75220 73370
" />
<path d="M75470 73340
L75530 73370
L75640 73370
L75700 73340
L75720 73290
L75720 73260
L75700 73200
L75640 73180
L75560 73180
L75500 73150
L75470 73090
L75470 73060
L75500 73010
L75560 72980
L75640 72980
L75700 73010
" />
<path d="M76230 73340
L76170 73370
L76060 73370
L76010 73340
L75980 73320
L75950 73260
L75950 73090
L75980 73030
L76010 73010
L76060 72980
L76170 72980
L76230 73010
" />
<path d="M76480 73370
L76480 72780
" />
<path d="M76740 73370
L76740 73060
L76710 73010
L76650 72980
L76570 72980
L76510 73010
L76480 73030
" />
</g>
<g style="fill:#840000; fill-opacity:0.0; 
stroke:#840000; stroke-width:100; stroke-opacity:1; 
stroke-linecap:round; stroke-linejoin:round;">
</g>
<g style="fill:#840000; fill-opacity:0.0; 
stroke:#840000; stroke-width:60; stroke-opacity:1; 
stroke-linecap:round; stroke-linejoin:round;">
<path d="M69690 71460
L112210 71460
" />
</g>
<g style="fill:#840000; fill-opacity:0.0; 
stroke:#840000; stroke-width:100; stroke-opacity:1; 
stroke-linecap:round; stroke-linejoin:round;">
</g>
<g style="fill:#840000; fill-opacity:0.0; 
stroke:#840000; stroke-width:60; stroke-opacity:1; 
stroke-linecap:round; stroke-linejoin:round;">
<path d="M70220 72280
L70300 72310
L70440 72310
L70500 72280
L70530 72260
L70550 72200
L70550 72140
L70530 72090
L70500 72060
L70440 72030
L70330 72000
L70270 71970
L70250 71950
L70220 71890
L70220 71830
L70250 71780
L70270 71750
L70330 71720
L70470 71720
L70550 71750
" />
<path d="M70810 72310
L70810 71720
" />
<path d="M71060 72310
L71060 72000
L71030 71950
L70980 71920
L70890 71920
L70840 71950
L70810 71970
" />
<path d="M71570 72280
L71510 72310
L71400 72310
L71340 72280
L71310 72230
L71310 72000
L71340 71950
L71400 71920
L71510 71920
L71570 71950
L71590 72000
L71590 72060
L71310 72120
" />
<path d="M72070 72280
L72020 72310
L71900 72310
L71850 72280
L71820 72230
L71820 72000
L71850 71950
L71900 71920
L72020 71920
L72070 71950
L72100 72000
L72100 72060
L71820 72120
" />
<path d="M72270 71920
L72490 71920
" />
<path d="M72350 71720
L72350 72230
L72380 72280
L72440 72310
L72490 72310
" />
<path d="M72690 72260
L72720 72280
L72690 72310
L72660 72280
L72690 72260
L72690 72310
" />
<path d="M72690 71950
L72720 71970
L72690 72000
L72660 71970
L72690 71950
L72690 72000
" />
<path d="M73840 71690
L73340 72450
" />
<path d="M74380 72310
L74180 72030
" />
<path d="M74040 72310
L74040 71720
L74260 71720
L74320 71750
L74350 71780
L74380 71830
L74380 71920
L74350 71970
L74320 72000
L74260 72030
L74040 72030
" />
<path d="M74850 72280
L74800 72310
L74680 72310
L74630 72280
L74600 72230
L74600 72000
L74630 71950
L74680 71920
L74800 71920
L74850 71950
L74880 72000
L74880 72060
L74600 72120
" />
<path d="M75220 72310
L75160 72280
L75130 72230
L75130 71720
" />
<path d="M75700 72310
L75700 72000
L75670 71950
L75610 71920
L75500 71920
L75440 71950
" />
<path d="M75700 72280
L75640 72310
L75500 72310
L75440 72280
L75420 72230
L75420 72170
L75440 72120
L75500 72090
L75640 72090
L75700 72060
" />
<path d="M75920 71920
L76060 72310
" />
<path d="M76200 71920
L76060 72310
L76010 72450
L75980 72480
L75920 72510
" />
<path d="M76400 72280
L76450 72310
L76570 72310
L76620 72280
L76650 72230
L76650 72200
L76620 72140
L76570 72120
L76480 72120
L76430 72090
L76400 72030
L76400 72000
L76430 71950
L76480 71920
L76570 71920
L76620 71950
" />
<path d="M77330 71690
L76820 72450
" />
</g>
<g style="fill:#840000; fill-opacity:0.0; 
stroke:#840000; stroke-width:100; stroke-opacity:1; 
stroke-linecap:round; stroke-linejoin:round;">
</g>
<g style="fill:#840000; fill-opacity:0.0; 
stroke:#840000; stroke-width:120; stroke-opacity:1; 
stroke-linecap:round; stroke-linejoin:round;">
<path d="M70630 71080
L70600 71100
L70520 71130
L70460 71130
L70380 71100
L70320 71050
L70290 70990
L70270 70880
L70270 70790
L70290 70680
L70320 70630
L70380 70570
L70460 70540
L70520 70540
L70600 70570
L70630 70600
" />
<path d="M70880 71130
L70880 70540
" />
<path d="M71140 71130
L71140 70820
L71110 70770
L71050 70740
L70970 70740
L70910 70770
L70880 70790
" />
<path d="M71670 71130
L71670 70820
L71640 70770
L71590 70740
L71470 70740
L71420 70770
" />
<path d="M71670 71100
L71610 71130
L71470 71130
L71420 71100
L71390 71050
L71390 70990
L71420 70940
L71470 70910
L71610 70910
L71670 70880
" />
<path d="M72040 71130
L71980 71100
L71950 71050
L71950 70540
" />
<path d="M72260 71130
L72260 70740
" />
<path d="M72260 70790
L72290 70770
L72340 70740
L72430 70740
L72480 70770
L72510 70820
L72510 71130
" />
<path d="M72510 70820
L72540 70770
L72600 70740
L72680 70740
L72740 70770
L72770 70820
L72770 71130
" />
<path d="M73270 71100
L73220 71130
L73100 71130
L73050 71100
L73020 71050
L73020 70820
L73050 70770
L73100 70740
L73220 70740
L73270 70770
L73300 70820
L73300 70880
L73020 70940
" />
<path d="M73550 71130
L73550 70740
" />
<path d="M73550 70850
L73580 70790
L73610 70770
L73660 70740
L73720 70740
" />
<path d="M73890 71100
L73950 71130
L74060 71130
L74110 71100
L74140 71050
L74140 71020
L74110 70960
L74060 70940
L73970 70940
L73920 70910
L73890 70850
L73890 70820
L73920 70770
L73970 70740
L74060 70740
L74110 70770
" />
<path d="M74760 70540
L74960 71130
L75150 70540
" />
<path d="M75580 71100
L75520 71130
L75410 71130
L75350 71100
L75320 71050
L75320 70820
L75350 70770
L75410 70740
L75520 70740
L75580 70770
L75600 70820
L75600 70880
L75320 70940
" />
<path d="M75860 71130
L75860 70740
" />
<path d="M75860 70850
L75880 70790
L75910 70770
L75970 70740
L76020 70740
" />
<path d="M76470 71130
L76470 70820
L76450 70770
L76390 70740
L76280 70740
L76220 70770
" />
<path d="M76470 71100
L76420 71130
L76280 71130
L76220 71100
L76190 71050
L76190 70990
L76220 70940
L76280 70910
L76420 70910
L76470 70880
" />
<path d="M77120 70540
L77460 70540
" />
<path d="M77290 71130
L77290 70540
" />
<path d="M77880 71100
L77820 71130
L77710 71130
L77650 71100
L77630 71050
L77630 70820
L77650 70770
L77710 70740
L77820 70740
L77880 70770
L77910 70820
L77910 70880
L77630 70940
" />
<path d="M78410 71130
L78410 70820
L78380 70770
L78330 70740
L78220 70740
L78160 70770
" />
<path d="M78410 71100
L78360 71130
L78220 71130
L78160 71100
L78130 71050
L78130 70990
L78160 70940
L78220 70910
L78360 70910
L78410 70880
" />
<path d="M78690 71130
L78690 70740
" />
<path d="M78690 70790
L78720 70770
L78780 70740
L78860 70740
L78920 70770
L78950 70820
L78950 71130
" />
<path d="M78950 70820
L78970 70770
L79030 70740
L79120 70740
L79170 70770
L79200 70820
L79200 71130
" />
</g>
<g style="fill:#840000; fill-opacity:0.0; 
stroke:#840000; stroke-width:100; stroke-opacity:1; 
stroke-linecap:round; stroke-linejoin:round;">
</g>
<g style="fill:#840000; fill-opacity:0.0; 
stroke:#840000; stroke-width:60; stroke-opacity:1; 
stroke-linecap:round; stroke-linejoin:round;">
<path d="M70250 69950
L70250 69360
L70390 69360
L70470 69390
L70530 69450
L70550 69500
L70580 69610
L70580 69700
L70550 69810
L70530 69870
L70470 69920
L70390 69950
L70250 69950
" />
<path d="M71060 69920
L71000 69950
L70890 69950
L70840 69920
L70810 69870
L70810 69640
L70840 69590
L70890 69560
L71000 69560
L71060 69590
L71090 69640
L71090 69700
L70810 69760
" />
<path d="M71310 69920
L71370 69950
L71480 69950
L71540 69920
L71570 69870
L71570 69840
L71540 69780
L71480 69760
L71400 69760
L71340 69730
L71310 69670
L71310 69640
L71340 69590
L71400 69560
L71480 69560
L71540 69590
" />
<path d="M71820 69950
L71820 69560
" />
<path d="M71820 69360
L71790 69390
L71820 69420
L71850 69390
L71820 69360
L71820 69420
" />
<path d="M72350 69560
L72350 70040
L72320 70090
L72300 70120
L72240 70150
L72160 70150
L72100 70120
" />
<path d="M72350 69920
L72300 69950
L72180 69950
L72130 69920
L72100 69900
L72070 69840
L72070 69670
L72100 69610
L72130 69590
L72180 69560
L72300 69560
L72350 69590
" />
<path d="M72630 69560
L72630 69950
" />
<path d="M72630 69610
L72660 69590
L72720 69560
L72800 69560
L72860 69590
L72890 69640
L72890 69950
" />
<path d="M73390 69920
L73340 69950
L73220 69950
L73170 69920
L73140 69870
L73140 69640
L73170 69590
L73220 69560
L73340 69560
L73390 69590
L73420 69640
L73420 69700
L73140 69760
" />
<path d="M73930 69950
L73930 69360
" />
<path d="M73930 69920
L73870 69950
L73760 69950
L73700 69920
L73670 69900
L73650 69840
L73650 69670
L73670 69610
L73700 69590
L73760 69560
L73870 69560
L73930 69590
" />
<path d="M74660 69950
L74660 69360
" />
<path d="M74660 69590
L74710 69560
L74830 69560
L74880 69590
L74910 69610
L74940 69670
L74940 69840
L74910 69900
L74880 69920
L74830 69950
L74710 69950
L74660 69920
" />
<path d="M75130 69560
L75270 69950
" />
<path d="M75420 69560
L75270 69950
L75220 70090
L75190 70120
L75130 70150
" />
<path d="M76090 69640
L76290 69640
" />
<path d="M76370 69950
L76090 69950
L76090 69360
L76370 69360
" />
<path d="M76620 69950
L76620 69560
" />
<path d="M76620 69670
L76650 69610
L76680 69590
L76740 69560
L76790 69560
" />
<path d="M76990 69950
L76990 69560
" />
<path d="M76990 69360
L76960 69390
L76990 69420
L77020 69390
L76990 69360
L76990 69420
" />
<path d="M77270 69950
L77270 69360
" />
<path d="M77330 69730
L77490 69950
" />
<path d="M77490 69560
L77270 69780
" />
<path d="M78170 69780
L78450 69780
" />
<path d="M78110 69950
L78310 69360
L78510 69950
" />
<path d="M78790 69950
L78730 69920
L78700 69870
L78700 69360
" />
<path d="M79010 69950
L79010 69560
" />
<path d="M79010 69610
L79040 69590
L79100 69560
L79180 69560
L79240 69590
L79260 69640
L79260 69950
" />
<path d="M79260 69640
L79290 69590
L79350 69560
L79430 69560
L79490 69590
L79520 69640
L79520 69950
" />
<path d="M79800 69950
L79800 69360
" />
<path d="M79800 69590
L79850 69560
L79970 69560
L80020 69590
L80050 69610
L80080 69670
L80080 69840
L80050 69900
L80020 69920
L79970 69950
L79850 69950
L79800 69920
" />
<path d="M80330 69950
L80330 69560
" />
<path d="M80330 69670
L80360 69610
L80390 69590
L80440 69560
L80500 69560
" />
<path d="M80950 69950
L80950 69640
L80920 69590
L80870 69560
L80750 69560
L80700 69590
" />
<path d="M80950 69920
L80890 69950
L80750 69950
L80700 69920
L80670 69870
L80670 69810
L80700 69760
L80750 69730
L80890 69730
L80950 69700
" />
<path d="M81150 69560
L81370 69560
" />
<path d="M81230 69360
L81230 69870
L81260 69920
L81320 69950
L81370 69950
" />
<path d="M81480 69560
L81710 69560
" />
<path d="M81570 69360
L81570 69870
L81600 69920
L81650 69950
L81710 69950
" />
<path d="M82520 70180
L82500 70150
L82440 70060
L82410 70010
L82380 69920
L82350 69780
L82350 69670
L82380 69530
L82410 69450
L82440 69390
L82500 69310
L82520 69280
" />
<path d="M82970 69920
L82920 69950
L82800 69950
L82750 69920
L82720 69870
L82720 69640
L82750 69590
L82800 69560
L82920 69560
L82970 69590
L83000 69640
L83000 69700
L82720 69760
" />
<path d="M83250 69950
L83250 69560
" />
<path d="M83250 69670
L83280 69610
L83310 69590
L83370 69560
L83420 69560
" />
<path d="M83620 69950
L83620 69560
" />
<path d="M83620 69360
L83590 69390
L83620 69420
L83650 69390
L83620 69360
L83620 69420
" />
<path d="M83900 69950
L83900 69360
" />
<path d="M83960 69730
L84120 69950
" />
<path d="M84120 69560
L83900 69780
" />
<path d="M84380 69900
L84410 69920
L84380 69950
L84350 69920
L84380 69900
L84380 69950
" />
<path d="M84910 69950
L84910 69640
L84880 69590
L84830 69560
L84710 69560
L84660 69590
" />
<path d="M84910 69920
L84860 69950
L84710 69950
L84660 69920
L84630 69870
L84630 69810
L84660 69760
L84710 69730
L84860 69730
L84910 69700
" />
<path d="M85280 69950
L85220 69920
L85190 69870
L85190 69360
" />
<path d="M85500 69950
L85500 69560
" />
<path d="M85500 69610
L85530 69590
L85590 69560
L85670 69560
L85730 69590
L85750 69640
L85750 69950
" />
<path d="M85750 69640
L85780 69590
L85840 69560
L85920 69560
L85980 69590
L86010 69640
L86010 69950
" />
<path d="M86290 69950
L86290 69360
" />
<path d="M86290 69590
L86340 69560
L86460 69560
L86510 69590
L86540 69610
L86570 69670
L86570 69840
L86540 69900
L86510 69920
L86460 69950
L86340 69950
L86290 69920
" />
<path d="M86820 69950
L86820 69560
" />
<path d="M86820 69670
L86850 69610
L86880 69590
L86930 69560
L86990 69560
" />
<path d="M87440 69950
L87440 69640
L87410 69590
L87360 69560
L87240 69560
L87190 69590
" />
<path d="M87440 69920
L87380 69950
L87240 69950
L87190 69920
L87160 69870
L87160 69810
L87190 69760
L87240 69730
L87380 69730
L87440 69700
" />
<path d="M87640 69560
L87860 69560
" />
<path d="M87720 69360
L87720 69870
L87750 69920
L87810 69950
L87860 69950
" />
<path d="M87970 69560
L88200 69560
" />
<path d="M88060 69360
L88060 69870
L88090 69920
L88140 69950
L88200 69950
" />
<path d="M88760 69670
L88730 69640
L88680 69610
L88620 69610
L88560 69640
L88540 69670
L88510 69730
L88510 69780
L88540 69840
L88560 69870
L88620 69900
L88680 69900
L88730 69870
L88760 69840
" />
<path d="M88760 69610
L88760 69840
L88790 69870
L88820 69870
L88870 69840
L88900 69780
L88900 69640
L88840 69560
L88760 69500
L88650 69470
L88540 69500
L88450 69560
L88400 69640
L88370 69760
L88400 69870
L88450 69950
L88540 70010
L88650 70040
L88760 70010
L88840 69950
" />
<path d="M89410 69560
L89410 70040
L89380 70090
L89350 70120
L89290 70150
L89210 70150
L89150 70120
" />
<path d="M89410 69920
L89350 69950
L89240 69950
L89180 69920
L89150 69900
L89130 69840
L89130 69670
L89150 69610
L89180 69590
L89240 69560
L89350 69560
L89410 69590
" />
<path d="M89690 69950
L89690 69560
" />
<path d="M89690 69610
L89720 69590
L89770 69560
L89860 69560
L89910 69590
L89940 69640
L89940 69950
" />
<path d="M89940 69640
L89970 69590
L90020 69560
L90110 69560
L90170 69590
L90190 69640
L90190 69950
" />
<path d="M90730 69950
L90730 69640
L90700 69590
L90640 69560
L90530 69560
L90470 69590
" />
<path d="M90730 69920
L90670 69950
L90530 69950
L90470 69920
L90450 69870
L90450 69810
L90470 69760
L90530 69730
L90670 69730
L90730 69700
" />
<path d="M91010 69950
L91010 69560
" />
<path d="M91010 69360
L90980 69390
L91010 69420
L91040 69390
L91010 69360
L91010 69420
" />
<path d="M91370 69950
L91320 69920
L91290 69870
L91290 69360
" />
<path d="M91600 69900
L91630 69920
L91600 69950
L91570 69920
L91600 69900
L91600 69950
" />
<path d="M92130 69920
L92080 69950
L91960 69950
L91910 69920
L91880 69900
L91850 69840
L91850 69670
L91880 69610
L91910 69590
L91960 69560
L92080 69560
L92130 69590
" />
<path d="M92470 69950
L92410 69920
L92380 69900
L92360 69840
L92360 69670
L92380 69610
L92410 69590
L92470 69560
L92550 69560
L92610 69590
L92640 69610
L92670 69670
L92670 69840
L92640 69900
L92610 69920
L92550 69950
L92470 69950
" />
<path d="M92920 69950
L92920 69560
" />
<path d="M92920 69610
L92950 69590
L93000 69560
L93090 69560
L93140 69590
L93170 69640
L93170 69950
" />
<path d="M93170 69640
L93200 69590
L93260 69560
L93340 69560
L93400 69590
L93420 69640
L93420 69950
" />
<path d="M93650 70180
L93680 70150
L93730 70060
L93760 70010
L93790 69920
L93820 69780
L93820 69670
L93790 69530
L93760 69450
L93730 69390
L93680 69310
L93650 69280
" />
</g>
<g style="fill:#840000; fill-opacity:0.0; 
stroke:#840000; stroke-width:100; stroke-opacity:1; 
stroke-linecap:round; stroke-linejoin:round;">
</g>
<g style="fill:#840000; fill-opacity:0.0; 
stroke:#840000; stroke-width:60; stroke-opacity:1; 
stroke-linecap:round; stroke-linejoin:round;">
<path d="M77560 75400
L77560 76580
" />
</g>
<g style="fill:#840000; fill-opacity:0.0; 
stroke:#840000; stroke-width:100; stroke-opacity:1; 
stroke-linecap:round; stroke-linejoin:round;">
</g>
<g style="fill:#840000; fill-opacity:0.0; 
stroke:#840000; stroke-width:60; stroke-opacity:1; 
stroke-linecap:round; stroke-linejoin:round;">
<path d="M102760 75400
L102760 77960
" />
</g>
<g style="fill:#840000; fill-opacity:0.0; 
stroke:#840000; stroke-width:0; stroke-opacity:1; 
stroke-linecap:round; stroke-linejoin:round;">
</g>
<g style="fill:#FFFFC2; fill-opacity:0.0; 
stroke:#FFFFC2; stroke-width:0; stroke-opacity:1; 
stroke-linecap:round; stroke-linejoin:round;">
</g>
<g style="fill:#FFFFC2; fill-opacity:0.6; 
stroke:#FFFFC2; stroke-width:0; stroke-opacity:1; 
stroke-linecap:round; stroke-linejoin:round;">
<rect x="40500" y="34000" width="4000" height="8000" rx="0" />
</g>
<g style="fill:#840000; fill-opacity:0.6; 
stroke:#840000; stroke-width:0; stroke-opacity:1; 
stroke-linecap:round; stroke-linejoin:round;">
</g>
<g style="fill:#840000; fill-opacity:0.0; 
stroke:#840000; stroke-width:100; stroke-opacity:1; 
stroke-linecap:round; stroke-linejoin:round;">
<rect x="40500" y="34000" width="4000" height="8000" rx="0" />
<rect x="41750" y="34750" width="1500" height="2500" rx="0" />
</g>
<g style="fill:#840000; fill-opacity:0.0; 
stroke:#840000; stroke-width:60; stroke-opacity:1; 
stroke-linecap:round; stroke-linejoin:round;">
<polyline fill="none;"
points="44000,39000
44500,39000
" /> 
<polyline fill="none;"
points="44000,41000
44500,41000
" /> 
<polyline fill="none;"
points="44000,41000
43500,41000
43750,40750
44000,41000
" /> 
</g>
<g style="fill:#840000; fill-opacity:0.0; 
stroke:#840000; stroke-width:100; stroke-opacity:1; 
stroke-linecap:round; stroke-linejoin:round;">
<polyline fill="none;"
points="41750,35000
43250,37000
" /> 
</g>
<g style="fill:#840000; fill-opacity:0.0; 
stroke:#840000; stroke-width:60; stroke-opacity:1; 
stroke-linecap:round; stroke-linejoin:round;">
<polyline fill="none;"
points="40500,36000
41750,36000
" /> 
<polyline fill="none;"
points="44500,36000
43250,36000
" /> 
</g>
<g style="fill:#840000; fill-opacity:0.0; 
stroke:#840000; stroke-width:100; stroke-opacity:1; 
stroke-linecap:round; stroke-linejoin:round;">
<polyline fill="none;"
points="42500,37250
42500,37500
" /> 
<polyline fill="none;"
points="42500,37750
42500,38000
" /> 
<polyline fill="none;"
points="42500,38250
42500,38500
" /> 
<polyline fill="none;"
points="42500,38250
42500,38500
" /> 
<polyline fill="none;"
points="42500,38750
42500,39000
" /> 
<polyline fill="none;"
points="42500,39250
42500,39500
" /> 
</g>
<g style="fill:#840000; fill-opacity:0.0; 
stroke:#840000; stroke-width:200; stroke-opacity:1; 
stroke-linecap:round; stroke-linejoin:round;">
<polyline fill="none;"
points="41500,40000
44000,39250
" /> 
</g>
<g style="fill:#840000; fill-opacity:0.0; 
stroke:#840000; stroke-width:60; stroke-opacity:1; 
stroke-linecap:round; stroke-linejoin:round;">
<polyline fill="none;"
points="41500,40000
40500,40000
" /> 
</g>
<g style="fill:#840000; fill-opacity:1.0; 
stroke:#840000; stroke-width:60; stroke-opacity:1; 
stroke-linecap:round; stroke-linejoin:round;">
<polyline style="fill-rule:evenodd;"
points="43500,39000
43750,39250
44000,39000
43500,39000
" /> 
</g>
<g style="fill:#840000; fill-opacity:0.0; 
stroke:#840000; stroke-width:60; stroke-opacity:1; 
stroke-linecap:round; stroke-linejoin:round;">
<path d="M44500 39000
L45500 39000
" />
<path d="M45140 38870
L44850 38870
" />
<path d="M45000 38870
L45000 38370
L44950 38440
L44900 38490
L44850 38510
" />
<path d="M44500 41000
L45500 41000
" />
<path d="M44900 40870
L44610 40870
" />
<path d="M44760 40870
L44760 40370
L44710 40440
L44660 40490
L44610 40510
" />
<path d="M45330 40540
L45330 40870
" />
<path d="M45210 40350
L45090 40700
L45400 40700
" />
<path d="M40500 36000
L39500 36000
" />
<path d="M39850 35420
L39880 35400
L39920 35370
L40040 35370
L40090 35400
L40110 35420
L40140 35470
L40140 35510
L40110 35590
L39830 35870
L40140 35870
" />
<path d="M44500 36000
L45500 36000
" />
<path d="M45090 35370
L45000 35370
L44950 35400
L44920 35420
L44880 35490
L44850 35590
L44850 35780
L44880 35820
L44900 35850
L44950 35870
L45040 35870
L45090 35850
L45110 35820
L45140 35780
L45140 35660
L45110 35610
L45090 35590
L45040 35560
L44950 35560
L44900 35590
L44880 35610
L44850 35660
" />
<path d="M40500 40000
L39500 40000
" />
<path d="M39830 39370
L40160 39370
L39950 39870
" />
</g>
<g style="fill:#008484; fill-opacity:0.0; 
stroke:#008484; stroke-width:60; stroke-opacity:1; 
stroke-linecap:round; stroke-linejoin:round;">
<path d="M42130 32570
L42130 32070
" />
<path d="M42410 32570
L42200 32290
" />
<path d="M42410 32070
L42130 32360
" />
<path d="M42890 32570
L42600 32570
" />
<path d="M42750 32570
L42750 32070
L42700 32140
L42650 32190
L42600 32210
" />
<path d="M39380 33480
L39380 32980
L39540 33340
L39710 32980
L39710 33480
" />
<path d="M40160 33480
L40160 33220
L40140 33170
L40090 33150
L40000 33150
L39950 33170
" />
<path d="M40160 33460
L40110 33480
L40000 33480
L39950 33460
L39920 33410
L39920 33360
L39950 33310
L40000 33290
L40110 33290
L40160 33270
" />
<path d="M40400 33480
L40400 33150
" />
<path d="M40400 32980
L40380 33010
L40400 33030
L40420 33010
L40400 32980
L40400 33030
" />
<path d="M40640 33150
L40640 33480
" />
<path d="M40640 33200
L40660 33170
L40710 33150
L40780 33150
L40830 33170
L40850 33220
L40850 33480
" />
<path d="M41470 33150
L41470 33650
" />
<path d="M41470 33170
L41520 33150
L41610 33150
L41660 33170
L41690 33200
L41710 33240
L41710 33390
L41690 33430
L41660 33460
L41610 33480
L41520 33480
L41470 33460
" />
<path d="M42000 33480
L41950 33460
L41920 33430
L41900 33390
L41900 33240
L41920 33200
L41950 33170
L42000 33150
L42070 33150
L42110 33170
L42140 33200
L42160 33240
L42160 33390
L42140 33430
L42110 33460
L42070 33480
L42000 33480
" />
<path d="M42330 33150
L42420 33480
L42520 33240
L42610 33480
L42710 33150
" />
<path d="M43090 33460
L43040 33480
L42950 33480
L42900 33460
L42880 33410
L42880 33220
L42900 33170
L42950 33150
L43040 33150
L43090 33170
L43110 33220
L43110 33270
L42880 33310
" />
<path d="M43330 33480
L43330 33150
" />
<path d="M43330 33240
L43350 33200
L43380 33170
L43420 33150
L43470 33150
" />
<path d="M44020 33480
L44020 33150
" />
<path d="M44020 33240
L44040 33200
L44070 33170
L44110 33150
L44160 33150
" />
<path d="M44520 33460
L44470 33480
L44380 33480
L44330 33460
L44300 33410
L44300 33220
L44330 33170
L44380 33150
L44470 33150
L44520 33170
L44540 33220
L44540 33270
L44300 33310
" />
<path d="M44830 33480
L44780 33460
L44760 33410
L44760 32980
" />
<path d="M45230 33480
L45230 33220
L45210 33170
L45160 33150
L45070 33150
L45020 33170
" />
<path d="M45230 33460
L45190 33480
L45070 33480
L45020 33460
L45000 33410
L45000 33360
L45020 33310
L45070 33290
L45190 33290
L45230 33270
" />
<path d="M45420 33150
L45540 33480
" />
<path d="M45660 33150
L45540 33480
L45500 33600
L45470 33620
L45420 33650
" />
</g>
<g style="fill:#008484; fill-opacity:0.0; 
stroke:#008484; stroke-width:0; stroke-opacity:1; 
stroke-linecap:round; stroke-linejoin:round;">
</g>
<g style="fill:#840000; fill-opacity:0.0; 
stroke:#840000; stroke-width:0; stroke-opacity:1; 
stroke-linecap:round; stroke-linejoin:round;">
</g>
<g style="fill:#FFFFC2; fill-opacity:0.0; 
stroke:#FFFFC2; stroke-width:0; stroke-opacity:1; 
stroke-linecap:round; stroke-linejoin:round;">
</g>
<g style="fill:#FFFFC2; fill-opacity:0.6; 
stroke:#FFFFC2; stroke-width:0; stroke-opacity:1; 
stroke-linecap:round; stroke-linejoin:round;">
<rect x="69000" y="34000" width="4000" height="8000" rx="0" />
</g>
<g style="fill:#840000; fill-opacity:0.6; 
stroke:#840000; stroke-width:0; stroke-opacity:1; 
stroke-linecap:round; stroke-linejoin:round;">
</g>
<g style="fill:#840000; fill-opacity:0.0; 
stroke:#840000; stroke-width:100; stroke-opacity:1; 
stroke-linecap:round; stroke-linejoin:round;">
<rect x="69000" y="34000" width="4000" height="8000" rx="0" />
<rect x="70250" y="34750" width="1500" height="2500" rx="0" />
</g>
<g style="fill:#840000; fill-opacity:0.0; 
stroke:#840000; stroke-width:60; stroke-opacity:1; 
stroke-linecap:round; stroke-linejoin:round;">
<polyline fill="none;"
points="72500,39000
73000,39000
" /> 
<polyline fill="none;"
points="72500,41000
73000,41000
" /> 
<polyline fill="none;"
points="72500,41000
72000,41000
72250,40750
72500,41000
" /> 
</g>
<g style="fill:#840000; fill-opacity:0.0; 
stroke:#840000; stroke-width:100; stroke-opacity:1; 
stroke-linecap:round; stroke-linejoin:round;">
<polyline fill="none;"
points="70250,35000
71750,37000
" /> 
</g>
<g style="fill:#840000; fill-opacity:0.0; 
stroke:#840000; stroke-width:60; stroke-opacity:1; 
stroke-linecap:round; stroke-linejoin:round;">
<polyline fill="none;"
points="69000,36000
70250,36000
" /> 
<polyline fill="none;"
points="73000,36000
71750,36000
" /> 
</g>
<g style="fill:#840000; fill-opacity:0.0; 
stroke:#840000; stroke-width:100; stroke-opacity:1; 
stroke-linecap:round; stroke-linejoin:round;">
<polyline fill="none;"
points="71000,37250
71000,37500
" /> 
<polyline fill="none;"
points="71000,37750
71000,38000
" /> 
<polyline fill="none;"
points="71000,38250
71000,38500
" /> 
<polyline fill="none;"
points="71000,38250
71000,38500
" /> 
<polyline fill="none;"
points="71000,38750
71000,39000
" /> 
<polyline fill="none;"
points="71000,39250
71000,39500
" /> 
</g>
<g style="fill:#840000; fill-opacity:0.0; 
stroke:#840000; stroke-width:200; stroke-opacity:1; 
stroke-linecap:round; stroke-linejoin:round;">
<polyline fill="none;"
points="70000,40000
72500,39250
" /> 
</g>
<g style="fill:#840000; fill-opacity:0.0; 
stroke:#840000; stroke-width:60; stroke-opacity:1; 
stroke-linecap:round; stroke-linejoin:round;">
<polyline fill="none;"
points="70000,40000
69000,40000
" /> 
</g>
<g style="fill:#840000; fill-opacity:1.0; 
stroke:#840000; stroke-width:60; stroke-opacity:1; 
stroke-linecap:round; stroke-linejoin:round;">
<polyline style="fill-rule:evenodd;"
points="72000,39000
72250,39250
72500,39000
72000,39000
" /> 
</g>
<g style="fill:#840000; fill-opacity:0.0; 
stroke:#840000; stroke-width:60; stroke-opacity:1; 
stroke-linecap:round; stroke-linejoin:round;">
<path d="M73000 39000
L74000 39000
" />
<path d="M73640 38870
L73350 38870
" />
<path d="M73500 38870
L73500 38370
L73450 38440
L73400 38490
L73350 38510
" />
<path d="M73000 41000
L74000 41000
" />
<path d="M73400 40870
L73110 40870
" />
<path d="M73260 40870
L73260 40370
L73210 40440
L73160 40490
L73110 40510
" />
<path d="M73830 40540
L73830 40870
" />
<path d="M73710 40350
L73590 40700
L73900 40700
" />
<path d="M69000 36000
L68000 36000
" />
<path d="M68350 35420
L68380 35400
L68420 35370
L68540 35370
L68590 35400
L68610 35420
L68640 35470
L68640 35510
L68610 35590
L68330 35870
L68640 35870
" />
<path d="M73000 36000
L74000 36000
" />
<path d="M73590 35370
L73500 35370
L73450 35400
L73420 35420
L73380 35490
L73350 35590
L73350 35780
L73380 35820
L73400 35850
L73450 35870
L73540 35870
L73590 35850
L73610 35820
L73640 35780
L73640 35660
L73610 35610
L73590 35590
L73540 35560
L73450 35560
L73400 35590
L73380 35610
L73350 35660
" />
<path d="M69000 40000
L68000 40000
" />
<path d="M68330 39370
L68660 39370
L68450 39870
" />
</g>
<g style="fill:#008484; fill-opacity:0.0; 
stroke:#008484; stroke-width:60; stroke-opacity:1; 
stroke-linecap:round; stroke-linejoin:round;">
<path d="M70630 32570
L70630 32070
" />
<path d="M70910 32570
L70700 32290
" />
<path d="M70910 32070
L70630 32360
" />
<path d="M71100 32120
L71130 32100
L71170 32070
L71290 32070
L71340 32100
L71360 32120
L71390 32170
L71390 32210
L71360 32290
L71080 32570
L71390 32570
" />
<path d="M67800 33460
L67880 33480
L68000 33480
L68040 33460
L68070 33430
L68090 33390
L68090 33340
L68070 33290
L68040 33270
L68000 33240
L67900 33220
L67850 33200
L67830 33170
L67800 33120
L67800 33080
L67830 33030
L67850 33010
L67900 32980
L68020 32980
L68090 33010
" />
<path d="M68230 33150
L68420 33150
" />
<path d="M68300 32980
L68300 33410
L68330 33460
L68380 33480
L68420 33480
" />
<path d="M68800 33480
L68800 33220
L68780 33170
L68730 33150
L68640 33150
L68590 33170
" />
<path d="M68800 33460
L68760 33480
L68640 33480
L68590 33460
L68570 33410
L68570 33360
L68590 33310
L68640 33290
L68760 33290
L68800 33270
" />
<path d="M69040 33480
L69040 33150
" />
<path d="M69040 33240
L69070 33200
L69090 33170
L69140 33150
L69190 33150
" />
<path d="M69280 33150
L69470 33150
" />
<path d="M69350 32980
L69350 33410
L69380 33460
L69420 33480
L69470 33480
" />
<path d="M70020 33480
L70020 33150
" />
<path d="M70020 33200
L70040 33170
L70090 33150
L70160 33150
L70210 33170
L70230 33220
L70230 33480
" />
<path d="M70230 33220
L70260 33170
L70300 33150
L70380 33150
L70420 33170
L70450 33220
L70450 33480
" />
<path d="M70760 33480
L70710 33460
L70690 33430
L70660 33390
L70660 33240
L70690 33200
L70710 33170
L70760 33150
L70830 33150
L70880 33170
L70900 33200
L70920 33240
L70920 33390
L70900 33430
L70880 33460
L70830 33480
L70760 33480
" />
<path d="M71070 33150
L71260 33150
" />
<path d="M71140 32980
L71140 33410
L71160 33460
L71210 33480
L71260 33480
" />
<path d="M71500 33480
L71450 33460
L71420 33430
L71400 33390
L71400 33240
L71420 33200
L71450 33170
L71500 33150
L71570 33150
L71610 33170
L71640 33200
L71660 33240
L71660 33390
L71640 33430
L71610 33460
L71570 33480
L71500 33480
" />
<path d="M71880 33480
L71880 33150
" />
<path d="M71880 33240
L71900 33200
L71920 33170
L71970 33150
L72020 33150
" />
<path d="M72570 33480
L72570 33150
" />
<path d="M72570 33240
L72590 33200
L72610 33170
L72660 33150
L72710 33150
" />
<path d="M73070 33460
L73020 33480
L72920 33480
L72880 33460
L72850 33410
L72850 33220
L72880 33170
L72920 33150
L73020 33150
L73070 33170
L73090 33220
L73090 33270
L72850 33310
" />
<path d="M73380 33480
L73330 33460
L73300 33410
L73300 32980
" />
<path d="M73780 33480
L73780 33220
L73760 33170
L73710 33150
L73610 33150
L73570 33170
" />
<path d="M73780 33460
L73730 33480
L73610 33480
L73570 33460
L73540 33410
L73540 33360
L73570 33310
L73610 33290
L73730 33290
L73780 33270
" />
<path d="M73970 33150
L74090 33480
" />
<path d="M74210 33150
L74090 33480
L74040 33600
L74020 33620
L73970 33650
" />
</g>
<g style="fill:#008484; fill-opacity:0.0; 
stroke:#008484; stroke-width:0; stroke-opacity:1; 
stroke-linecap:round; stroke-linejoin:round;">
</g>
<g style="fill:#840000; fill-opacity:0.0; 
stroke:#840000; stroke-width:0; stroke-opacity:1; 
stroke-linecap:round; stroke-linejoin:round;">
</g>
<g style="fill:#840000; fill-opacity:0.0; 
stroke:#840000; stroke-width:80; stroke-opacity:1; 
stroke-linecap:round; stroke-linejoin:round;">
<polyline fill="none;"
points="42000,30500
42000,29500
" /> 
</g>
<g style="fill:#840000; fill-opacity:0.0; 
stroke:#840000; stroke-width:60; stroke-opacity:1; 
stroke-linecap:round; stroke-linejoin:round;">
<polyline fill="none;"
points="43000,30000
42000,30000
" /> 
</g>
<g style="fill:#840000; fill-opacity:0.0; 
stroke:#840000; stroke-width:80; stroke-opacity:1; 
stroke-linecap:round; stroke-linejoin:round;">
<polyline fill="none;"
points="43000,30500
43000,29500
42000,30000
43000,30500
" /> 
</g>
<g style="fill:#840000; fill-opacity:0.0; 
stroke:#840000; stroke-width:60; stroke-opacity:1; 
stroke-linecap:round; stroke-linejoin:round;">
<path d="M42000 30000
L41000 30000
" />
<path d="M43000 30000
L44000 30000
" />
</g>
<g style="fill:#008484; fill-opacity:0.0; 
stroke:#008484; stroke-width:60; stroke-opacity:1; 
stroke-linecap:round; stroke-linejoin:round;">
<path d="M42130 28030
L42130 27530
L42250 27530
L42320 27560
L42360 27600
L42390 27650
L42410 27750
L42410 27820
L42390 27910
L42360 27960
L42320 28010
L42250 28030
L42130 28030
" />
<path d="M42600 27580
L42630 27560
L42670 27530
L42790 27530
L42840 27560
L42860 27580
L42890 27630
L42890 27670
L42860 27750
L42580 28030
L42890 28030
" />
<path d="M42360 28940
L42360 28440
L42480 28440
L42550 28470
L42600 28510
L42630 28560
L42650 28660
L42650 28730
L42630 28820
L42600 28870
L42550 28920
L42480 28940
L42360 28940
" />
</g>
<g style="fill:#008484; fill-opacity:0.0; 
stroke:#008484; stroke-width:0; stroke-opacity:1; 
stroke-linecap:round; stroke-linejoin:round;">
</g>
<g style="fill:#840000; fill-opacity:0.0; 
stroke:#840000; stroke-width:0; stroke-opacity:1; 
stroke-linecap:round; stroke-linejoin:round;">
</g>
<g style="fill:#840000; fill-opacity:0.0; 
stroke:#840000; stroke-width:80; stroke-opacity:1; 
stroke-linecap:round; stroke-linejoin:round;">
<polyline fill="none;"
points="70500,29500
70500,30500
" /> 
</g>
<g style="fill:#840000; fill-opacity:0.0; 
stroke:#840000; stroke-width:60; stroke-opacity:1; 
stroke-linecap:round; stroke-linejoin:round;">
<polyline fill="none;"
points="71500,30000
70500,30000
" /> 
</g>
<g style="fill:#840000; fill-opacity:0.0; 
stroke:#840000; stroke-width:80; stroke-opacity:1; 
stroke-linecap:round; stroke-linejoin:round;">
<polyline fill="none;"
points="71500,29500
71500,30500
70500,30000
71500,29500
" /> 
</g>
<g style="fill:#840000; fill-opacity:0.0; 
stroke:#840000; stroke-width:60; stroke-opacity:1; 
stroke-linecap:round; stroke-linejoin:round;">
<path d="M70500 30000
L69500 30000
" />
<path d="M71500 30000
L72500 30000
" />
</g>
<g style="fill:#008484; fill-opacity:0.0; 
stroke:#008484; stroke-width:60; stroke-opacity:1; 
stroke-linecap:round; stroke-linejoin:round;">
<path d="M70630 28080
L70630 27580
L70750 27580
L70820 27610
L70860 27650
L70890 27700
L70910 27800
L70910 27870
L70890 27960
L70860 28010
L70820 28060
L70750 28080
L70630 28080
" />
<path d="M71080 27580
L71390 27580
L71220 27770
L71290 27770
L71340 27800
L71360 27820
L71390 27870
L71390 27990
L71360 28030
L71340 28060
L71290 28080
L71150 28080
L71100 28060
L71080 28030
" />
<path d="M70860 28990
L70860 28490
L70980 28490
L71050 28520
L71100 28560
L71130 28610
L71150 28710
L71150 28780
L71130 28870
L71100 28920
L71050 28970
L70980 28990
L70860 28990
" />
</g>
<g style="fill:#008400; fill-opacity:0.0; 
stroke:#008400; stroke-width:60; stroke-opacity:1; 
stroke-linecap:round; stroke-linejoin:round;">
<path d="M41000 30000
L37500 30000
" />
<path d="M37500 30000
L37500 36000
" />
<path d="M37500 36000
L39500 36000
" />
<path d="M44000 30000
L47500 30000
" />
<path d="M47500 30000
L47500 36000
" />
<path d="M47500 36000
L45500 36000
" />
<path d="M69500 30000
L65500 30000
" />
<path d="M65500 30000
L65500 36000
" />
<path d="M65500 36000
L68000 36000
" />
<path d="M76500 30000
L76500 36000
" />
<path d="M76500 36000
L74000 36000
" />
</g>
<g style="fill:#008400; fill-opacity:0.0; 
stroke:#008400; stroke-width:0; stroke-opacity:1; 
stroke-linecap:round; stroke-linejoin:round;">
</g>
<g style="fill:#840000; fill-opacity:0.0; 
stroke:#840000; stroke-width:0; stroke-opacity:1; 
stroke-linecap:round; stroke-linejoin:round;">
</g>
<g style="fill:#840000; fill-opacity:0.0; 
stroke:#840000; stroke-width:60; stroke-opacity:1; 
stroke-linecap:round; stroke-linejoin:round;">
<polyline fill="none;"
points="38200,39000
38500,38500
" /> 
<polyline fill="none;"
points="38500,39500
38500,38500
" /> 
<polyline fill="none;"
points="38500,38500
38800,39000
" /> 
</g>
<g style="fill:#008484; fill-opacity:0.0; 
stroke:#008484; stroke-width:60; stroke-opacity:1; 
stroke-linecap:round; stroke-linejoin:round;">
<path d="M37610 37820
L37990 37820
" />
<path d="M37800 38010
L37800 37630
" />
<path d="M38400 37750
L38470 37770
L38490 37800
L38510 37840
L38510 37920
L38490 37960
L38470 37990
L38420 38010
L38230 38010
L38230 37510
L38400 37510
L38440 37540
L38470 37560
L38490 37610
L38490 37650
L38470 37700
L38440 37730
L38400 37750
L38230 37750
" />
<path d="M38700 37870
L38940 37870
" />
<path d="M38660 38010
L38820 37510
L38990 38010
" />
<path d="M39090 37510
L39370 37510
" />
<path d="M39230 38010
L39230 37510
" />
<path d="M39470 37510
L39750 37510
" />
<path d="M39610 38010
L39610 37510
" />
</g>
<g style="fill:#008400; fill-opacity:0.0; 
stroke:#008400; stroke-width:60; stroke-opacity:1; 
stroke-linecap:round; stroke-linejoin:round;">
<path d="M38500 39500
L38500 40000
" />
<path d="M38500 40000
L39500 40000
" />
</g>
<g style="fill:#000084; fill-opacity:0.0; 
stroke:#000084; stroke-width:60; stroke-opacity:1; 
stroke-linecap:round; stroke-linejoin:round;">
<path d="M73760 38760
L74240 39240
" />
<path d="M74240 38760
L73760 39240
" />
<path d="M45260 38760
L45740 39240
" />
<path d="M45740 38760
L45260 39240
" />
</g>
<g style="fill:#000084; fill-opacity:0.0; 
stroke:#000084; stroke-width:0; stroke-opacity:1; 
stroke-linecap:round; stroke-linejoin:round;">
</g>
<g style="fill:#840000; fill-opacity:0.0; 
stroke:#840000; stroke-width:0; stroke-opacity:1; 
stroke-linecap:round; stroke-linejoin:round;">
</g>
<g style="fill:#840000; fill-opacity:0.0; 
stroke:#840000; stroke-width:60; stroke-opacity:1; 
stroke-linecap:round; stroke-linejoin:round;">
<polyline fill="none;"
points="48200,40000
48500,39500
" /> 
<polyline fill="none;"
points="48500,40500
48500,39500
" /> 
<polyline fill="none;"
points="48500,39500
48800,40000
" /> 
</g>
<g style="fill:#008484; fill-opacity:0.0; 
stroke:#008484; stroke-width:60; stroke-opacity:1; 
stroke-linecap:round; stroke-linejoin:round;">
<path d="M47760 38820
L48150 38820
" />
<path d="M47950 39010
L47950 38630
" />
<path d="M48650 39010
L48360 39010
" />
<path d="M48500 39010
L48500 38510
L48450 38580
L48410 38630
L48360 38650
" />
<path d="M48840 38560
L48860 38540
L48910 38510
L49030 38510
L49070 38540
L49100 38560
L49120 38610
L49120 38650
L49100 38730
L48810 39010
L49120 39010
" />
<path d="M49260 38510
L49430 39010
L49600 38510
" />
</g>
<g style="fill:#008400; fill-opacity:0.0; 
stroke:#008400; stroke-width:60; stroke-opacity:1; 
stroke-linecap:round; stroke-linejoin:round;">
<path d="M48500 40500
L48500 41000
" />
<path d="M48500 41000
L45500 41000
" />
</g>
<g style="fill:#848400; fill-opacity:0.0; 
stroke:#848400; stroke-width:60; stroke-opacity:1; 
stroke-linecap:round; stroke-linejoin:round;">
<path d="M76720 41200
L76770 41220
L76860 41220
L76910 41200
L76930 41150
L76930 41130
L76910 41080
L76860 41050
L76790 41050
L76740 41030
L76720 40980
L76720 40960
L76740 40910
L76790 40890
L76860 40890
L76910 40910
" />
<path d="M77080 40890
L77270 40890
" />
<path d="M77150 40720
L77150 41150
L77170 41200
L77220 41220
L77270 41220
" />
<path d="M77650 41220
L77650 40960
L77630 40910
L77580 40890
L77480 40890
L77430 40910
" />
<path d="M77650 41200
L77600 41220
L77480 41220
L77430 41200
L77410 41150
L77410 41100
L77430 41050
L77480 41030
L77600 41030
L77650 41010
" />
<path d="M77890 41220
L77890 40890
" />
<path d="M77890 40980
L77910 40940
L77930 40910
L77980 40890
L78030 40890
" />
<path d="M78130 40890
L78320 40890
" />
<path d="M78200 40720
L78200 41150
L78220 41200
L78270 41220
L78320 41220
" />
<path d="M78360 41270
L78740 41270
" />
<path d="M78860 41220
L78860 40890
" />
<path d="M78860 40940
L78890 40910
L78930 40890
L79010 40890
L79050 40910
L79080 40960
L79080 41220
" />
<path d="M79080 40960
L79100 40910
L79150 40890
L79220 40890
L79270 40910
L79290 40960
L79290 41220
" />
<path d="M79600 41220
L79550 41200
L79530 41170
L79510 41130
L79510 40980
L79530 40940
L79550 40910
L79600 40890
L79670 40890
L79720 40910
L79740 40940
L79770 40980
L79770 41130
L79740 41170
L79720 41200
L79670 41220
L79600 41220
" />
<path d="M79910 40890
L80100 40890
" />
<path d="M79980 40720
L79980 41150
L80010 41200
L80050 41220
L80100 41220
" />
<path d="M80340 41220
L80290 41200
L80270 41170
L80240 41130
L80240 40980
L80270 40940
L80290 40910
L80340 40890
L80410 40890
L80460 40910
L80480 40940
L80510 40980
L80510 41130
L80480 41170
L80460 41200
L80410 41220
L80340 41220
" />
<path d="M80720 41220
L80720 40890
" />
<path d="M80720 40980
L80740 40940
L80770 40910
L80820 40890
L80860 40890
" />
<path d="M80910 41270
L81290 41270
" />
<path d="M81410 41220
L81410 40890
" />
<path d="M81410 40980
L81430 40940
L81460 40910
L81510 40890
L81550 40890
" />
<path d="M81910 41200
L81860 41220
L81770 41220
L81720 41200
L81700 41150
L81700 40960
L81720 40910
L81770 40890
L81860 40890
L81910 40910
L81930 40960
L81930 41010
L81700 41050
" />
<path d="M82220 41220
L82170 41200
L82150 41150
L82150 40720
" />
<path d="M82630 41220
L82630 40960
L82600 40910
L82550 40890
L82460 40890
L82410 40910
" />
<path d="M82630 41200
L82580 41220
L82460 41220
L82410 41200
L82390 41150
L82390 41100
L82410 41050
L82460 41030
L82580 41030
L82630 41010
" />
<path d="M82820 40890
L82930 41220
" />
<path d="M83050 40890
L82930 41220
L82890 41340
L82860 41360
L82820 41390
" />
<path d="M83130 41270
L83510 41270
" />
<path d="M83700 41220
L83650 41200
L83630 41170
L83600 41130
L83600 40980
L83630 40940
L83650 40910
L83700 40890
L83770 40890
L83820 40910
L83840 40940
L83860 40980
L83860 41130
L83840 41170
L83820 41200
L83770 41220
L83700 41220
" />
<path d="M84290 40890
L84290 41220
" />
<path d="M84080 40890
L84080 41150
L84100 41200
L84150 41220
L84220 41220
L84270 41200
L84290 41170
" />
<path d="M84460 40890
L84650 40890
" />
<path d="M84530 40720
L84530 41150
L84550 41200
L84600 41220
L84650 41220
" />
<path d="M84820 40890
L84820 41390
" />
<path d="M84820 40910
L84860 40890
L84960 40890
L85010 40910
L85030 40940
L85050 40980
L85050 41130
L85030 41170
L85010 41200
L84960 41220
L84860 41220
L84820 41200
" />
<path d="M85480 40890
L85480 41220
" />
<path d="M85270 40890
L85270 41150
L85290 41200
L85340 41220
L85410 41220
L85460 41200
L85480 41170
" />
<path d="M85650 40890
L85840 40890
" />
<path d="M85720 40720
L85720 41150
L85740 41200
L85790 41220
L85840 41220
" />
</g>
<g style="fill:#848400; fill-opacity:0.0; 
stroke:#848400; stroke-width:100; stroke-opacity:1; 
stroke-linecap:round; stroke-linejoin:round;">
<polyline fill="none;"
points="76500,41000
76250,40750
76000,40750
76000,41250
76250,41250
76500,41000
" /> 
</g>
<g style="fill:#848400; fill-opacity:0.0; 
stroke:#848400; stroke-width:60; stroke-opacity:1; 
stroke-linecap:round; stroke-linejoin:round;">
</g>
<g style="fill:#008400; fill-opacity:0.0; 
stroke:#008400; stroke-width:60; stroke-opacity:1; 
stroke-linecap:round; stroke-linejoin:round;">
<path d="M76000 41000
L74000 41000
" />
</g>
<g style="fill:#008400; fill-opacity:0.0; 
stroke:#008400; stroke-width:0; stroke-opacity:1; 
stroke-linecap:round; stroke-linejoin:round;">
</g>
<g style="fill:#840000; fill-opacity:0.0; 
stroke:#840000; stroke-width:0; stroke-opacity:1; 
stroke-linecap:round; stroke-linejoin:round;">
</g>
<g style="fill:#840000; fill-opacity:0.0; 
stroke:#840000; stroke-width:60; stroke-opacity:1; 
stroke-linecap:round; stroke-linejoin:round;">
<polyline fill="none;"
points="66700,39000
67000,38500
" /> 
<polyline fill="none;"
points="67000,39500
67000,38500
" /> 
<polyline fill="none;"
points="67000,38500
67300,39000
" /> 
</g>
<g style="fill:#008484; fill-opacity:0.0; 
stroke:#008484; stroke-width:60; stroke-opacity:1; 
stroke-linecap:round; stroke-linejoin:round;">
<path d="M66260 37820
L66650 37820
" />
<path d="M66450 38010
L66450 37630
" />
<path d="M67150 38010
L66860 38010
" />
<path d="M67000 38010
L67000 37510
L66950 37580
L66910 37630
L66860 37650
" />
<path d="M67340 37560
L67360 37540
L67410 37510
L67530 37510
L67570 37540
L67600 37560
L67620 37610
L67620 37650
L67600 37730
L67310 38010
L67620 38010
" />
<path d="M67760 37510
L67930 38010
L68100 37510
" />
</g>
<g style="fill:#008400; fill-opacity:0.0; 
stroke:#008400; stroke-width:60; stroke-opacity:1; 
stroke-linecap:round; stroke-linejoin:round;">
<path d="M67000 39500
L67000 40000
" />
<path d="M67000 40000
L68000 40000
" />
</g>
<g style="fill:#848400; fill-opacity:0.0; 
stroke:#848400; stroke-width:60; stroke-opacity:1; 
stroke-linecap:round; stroke-linejoin:round;">
<path d="M28700 36220
L28700 35890
" />
<path d="M28700 35940
L28720 35910
L28770 35890
L28840 35890
L28890 35910
L28910 35960
L28910 36220
" />
<path d="M28910 35960
L28940 35910
L28980 35890
L29060 35890
L29100 35910
L29130 35960
L29130 36220
" />
<path d="M29580 36220
L29580 35960
L29560 35910
L29510 35890
L29410 35890
L29370 35910
" />
<path d="M29580 36200
L29530 36220
L29410 36220
L29370 36200
L29340 36150
L29340 36100
L29370 36050
L29410 36030
L29530 36030
L29580 36010
" />
<path d="M29820 36220
L29820 35890
" />
<path d="M29820 35720
L29790 35750
L29820 35770
L29840 35750
L29820 35720
L29820 35770
" />
<path d="M30060 35890
L30060 36220
" />
<path d="M30060 35940
L30080 35910
L30130 35890
L30200 35890
L30250 35910
L30270 35960
L30270 36220
" />
<path d="M30390 36270
L30770 36270
" />
<path d="M30890 36220
L30890 35890
" />
<path d="M30890 35980
L30910 35940
L30940 35910
L30980 35890
L31030 35890
" />
<path d="M31390 36200
L31340 36220
L31250 36220
L31200 36200
L31170 36150
L31170 35960
L31200 35910
L31250 35890
L31340 35890
L31390 35910
L31410 35960
L31410 36010
L31170 36050
" />
<path d="M31700 36220
L31650 36200
L31630 36150
L31630 35720
" />
<path d="M32100 36220
L32100 35960
L32080 35910
L32030 35890
L31940 35890
L31890 35910
" />
<path d="M32100 36200
L32060 36220
L31940 36220
L31890 36200
L31870 36150
L31870 36100
L31890 36050
L31940 36030
L32060 36030
L32100 36010
" />
<path d="M32290 35890
L32410 36220
" />
<path d="M32530 35890
L32410 36220
L32370 36340
L32340 36360
L32290 36390
" />
<path d="M32600 36270
L32980 36270
" />
<path d="M33100 36220
L33100 35890
" />
<path d="M33100 35720
L33080 35750
L33100 35770
L33130 35750
L33100 35720
L33100 35770
" />
<path d="M33340 35890
L33340 36220
" />
<path d="M33340 35940
L33370 35910
L33410 35890
L33480 35890
L33530 35910
L33560 35960
L33560 36220
" />
<path d="M33790 35890
L33790 36390
" />
<path d="M33790 35910
L33840 35890
L33940 35890
L33980 35910
L34010 35940
L34030 35980
L34030 36130
L34010 36170
L33980 36200
L33940 36220
L33840 36220
L33790 36200
" />
<path d="M34460 35890
L34460 36220
" />
<path d="M34250 35890
L34250 36150
L34270 36200
L34320 36220
L34390 36220
L34440 36200
L34460 36170
" />
<path d="M34630 35890
L34820 35890
" />
<path d="M34700 35720
L34700 36150
L34720 36200
L34770 36220
L34820 36220
" />
</g>
<g style="fill:#848400; fill-opacity:0.0; 
stroke:#848400; stroke-width:100; stroke-opacity:1; 
stroke-linecap:round; stroke-linejoin:round;">
<polyline fill="none;"
points="35500,36000
35250,35750
35000,35750
35000,36250
35250,36250
35500,36000
" /> 
</g>
<g style="fill:#848400; fill-opacity:0.0; 
stroke:#848400; stroke-width:60; stroke-opacity:1; 
stroke-linecap:round; stroke-linejoin:round;">
</g>
<g style="fill:#008400; fill-opacity:0.0; 
stroke:#008400; stroke-width:60; stroke-opacity:1; 
stroke-linecap:round; stroke-linejoin:round;">
<path d="M35500 36000
L37500 36000
" />
</g>
<g style="fill:#008400; fill-opacity:0.0; 
stroke:#008400; stroke-width:0; stroke-opacity:1; 
stroke-linecap:round; stroke-linejoin:round;">
</g>
<g style="fill:#008400; fill-opacity:1.0; 
stroke:#008400; stroke-width:100; stroke-opacity:1; 
stroke-linecap:round; stroke-linejoin:round;">
<circle cx="37500" cy="36000" r="200" /> 
</g>
<g style="fill:#008400; fill-opacity:1.0; 
stroke:#008400; stroke-width:0; stroke-opacity:1; 
stroke-linecap:round; stroke-linejoin:round;">
</g>
<g style="fill:#840000; fill-opacity:1.0; 
stroke:#840000; stroke-width:0; stroke-opacity:1; 
stroke-linecap:round; stroke-linejoin:round;">
</g>
<g style="fill:#840000; fill-opacity:0.0; 
stroke:#840000; stroke-width:60; stroke-opacity:1; 
stroke-linecap:round; stroke-linejoin:round;">
<polyline fill="none;"
points="51500,36500
51500,37000
52000,37000
51500,37500
51000,37000
51500,37000
" /> 
</g>
<g style="fill:#008484; fill-opacity:0.0; 
stroke:#008484; stroke-width:60; stroke-opacity:1; 
stroke-linecap:round; stroke-linejoin:round;">
<path d="M50930 38000
L50880 37970
L50810 37970
L50740 38000
L50690 38040
L50660 38090
L50640 38190
L50640 38260
L50660 38350
L50690 38400
L50740 38450
L50810 38470
L50850 38470
L50930 38450
L50950 38420
L50950 38260
L50850 38260
" />
<path d="M51160 38470
L51160 37970
L51450 38470
L51450 37970
" />
<path d="M51690 38470
L51690 37970
L51810 37970
L51880 38000
L51930 38040
L51950 38090
L51970 38190
L51970 38260
L51950 38350
L51930 38400
L51880 38450
L51810 38470
L51690 38470
" />
<path d="M52160 38450
L52240 38470
L52350 38470
L52400 38450
L52430 38420
L52450 38380
L52450 38330
L52430 38280
L52400 38260
L52350 38230
L52260 38210
L52210 38190
L52190 38160
L52160 38110
L52160 38070
L52190 38020
L52210 38000
L52260 37970
L52380 37970
L52450 38000
" />
</g>
<g style="fill:#008400; fill-opacity:0.0; 
stroke:#008400; stroke-width:60; stroke-opacity:1; 
stroke-linecap:round; stroke-linejoin:round;">
<path d="M51500 36500
L51500 36000
" />
<path d="M51500 36000
L47500 36000
" />
</g>
<g style="fill:#008400; fill-opacity:0.0; 
stroke:#008400; stroke-width:0; stroke-opacity:1; 
stroke-linecap:round; stroke-linejoin:round;">
</g>
<g style="fill:#008400; fill-opacity:1.0; 
stroke:#008400; stroke-width:100; stroke-opacity:1; 
stroke-linecap:round; stroke-linejoin:round;">
<circle cx="47500" cy="36000" r="200" /> 
</g>
<g style="fill:#008400; fill-opacity:1.0; 
stroke:#008400; stroke-width:60; stroke-opacity:1; 
stroke-linecap:round; stroke-linejoin:round;">
</g>
<g style="fill:#848400; fill-opacity:0.0; 
stroke:#848400; stroke-width:60; stroke-opacity:1; 
stroke-linecap:round; stroke-linejoin:round;">
<path d="M55200 36200
L55250 36220
L55340 36220
L55390 36200
L55410 36150
L55410 36130
L55390 36080
L55340 36050
L55270 36050
L55220 36030
L55200 35980
L55200 35960
L55220 35910
L55270 35890
L55340 35890
L55390 35910
" />
<path d="M55560 35890
L55750 35890
" />
<path d="M55630 35720
L55630 36150
L55650 36200
L55700 36220
L55750 36220
" />
<path d="M56130 36220
L56130 35960
L56100 35910
L56060 35890
L55960 35890
L55910 35910
" />
<path d="M56130 36200
L56080 36220
L55960 36220
L55910 36200
L55890 36150
L55890 36100
L55910 36050
L55960 36030
L56080 36030
L56130 36010
" />
<path d="M56370 36220
L56370 35890
" />
<path d="M56370 35980
L56390 35940
L56410 35910
L56460 35890
L56510 35890
" />
<path d="M56600 35890
L56790 35890
" />
<path d="M56670 35720
L56670 36150
L56700 36200
L56750 36220
L56790 36220
" />
<path d="M56840 36270
L57220 36270
" />
<path d="M57340 36220
L57340 35890
" />
<path d="M57340 35940
L57370 35910
L57410 35890
L57480 35890
L57530 35910
L57560 35960
L57560 36220
" />
<path d="M57560 35960
L57580 35910
L57630 35890
L57700 35890
L57750 35910
L57770 35960
L57770 36220
" />
<path d="M58080 36220
L58030 36200
L58010 36170
L57980 36130
L57980 35980
L58010 35940
L58030 35910
L58080 35890
L58150 35890
L58200 35910
L58220 35940
L58250 35980
L58250 36130
L58220 36170
L58200 36200
L58150 36220
L58080 36220
" />
<path d="M58390 35890
L58580 35890
" />
<path d="M58460 35720
L58460 36150
L58480 36200
L58530 36220
L58580 36220
" />
<path d="M58820 36220
L58770 36200
L58750 36170
L58720 36130
L58720 35980
L58750 35940
L58770 35910
L58820 35890
L58890 35890
L58940 35910
L58960 35940
L58980 35980
L58980 36130
L58960 36170
L58940 36200
L58890 36220
L58820 36220
" />
<path d="M59200 36220
L59200 35890
" />
<path d="M59200 35980
L59220 35940
L59250 35910
L59290 35890
L59340 35890
" />
<path d="M59390 36270
L59770 36270
" />
<path d="M59890 36220
L59890 35890
" />
<path d="M59890 35980
L59910 35940
L59940 35910
L59980 35890
L60030 35890
" />
<path d="M60390 36200
L60340 36220
L60250 36220
L60200 36200
L60170 36150
L60170 35960
L60200 35910
L60250 35890
L60340 35890
L60390 35910
L60410 35960
L60410 36010
L60170 36050
" />
<path d="M60700 36220
L60650 36200
L60630 36150
L60630 35720
" />
<path d="M61100 36220
L61100 35960
L61080 35910
L61030 35890
L60940 35890
L60890 35910
" />
<path d="M61100 36200
L61060 36220
L60940 36220
L60890 36200
L60870 36150
L60870 36100
L60890 36050
L60940 36030
L61060 36030
L61100 36010
" />
<path d="M61290 35890
L61410 36220
" />
<path d="M61530 35890
L61410 36220
L61370 36340
L61340 36360
L61290 36390
" />
<path d="M61600 36270
L61980 36270
" />
<path d="M62100 36220
L62100 35890
" />
<path d="M62100 35720
L62080 35750
L62100 35770
L62130 35750
L62100 35720
L62100 35770
" />
<path d="M62340 35890
L62340 36220
" />
<path d="M62340 35940
L62370 35910
L62410 35890
L62480 35890
L62530 35910
L62560 35960
L62560 36220
" />
<path d="M62790 35890
L62790 36390
" />
<path d="M62790 35910
L62840 35890
L62940 35890
L62980 35910
L63010 35940
L63030 35980
L63030 36130
L63010 36170
L62980 36200
L62940 36220
L62840 36220
L62790 36200
" />
<path d="M63460 35890
L63460 36220
" />
<path d="M63250 35890
L63250 36150
L63270 36200
L63320 36220
L63390 36220
L63440 36200
L63460 36170
" />
<path d="M63630 35890
L63820 35890
" />
<path d="M63700 35720
L63700 36150
L63720 36200
L63770 36220
L63820 36220
" />
</g>
<g style="fill:#848400; fill-opacity:0.0; 
stroke:#848400; stroke-width:100; stroke-opacity:1; 
stroke-linecap:round; stroke-linejoin:round;">
<polyline fill="none;"
points="64500,36000
64250,35750
64000,35750
64000,36250
64250,36250
64500,36000
" /> 
</g>
<g style="fill:#848400; fill-opacity:0.0; 
stroke:#848400; stroke-width:60; stroke-opacity:1; 
stroke-linecap:round; stroke-linejoin:round;">
</g>
<g style="fill:#008400; fill-opacity:0.0; 
stroke:#008400; stroke-width:60; stroke-opacity:1; 
stroke-linecap:round; stroke-linejoin:round;">
<path d="M64500 36000
L65500 36000
" />
</g>
<g style="fill:#008400; fill-opacity:0.0; 
stroke:#008400; stroke-width:0; stroke-opacity:1; 
stroke-linecap:round; stroke-linejoin:round;">
</g>
<g style="fill:#008400; fill-opacity:1.0; 
stroke:#008400; stroke-width:100; stroke-opacity:1; 
stroke-linecap:round; stroke-linejoin:round;">
<circle cx="65500" cy="36000" r="200" /> 
</g>
<g style="fill:#008400; fill-opacity:1.0; 
stroke:#008400; stroke-width:0; stroke-opacity:1; 
stroke-linecap:round; stroke-linejoin:round;">
</g>
<g style="fill:#840000; fill-opacity:1.0; 
stroke:#840000; stroke-width:0; stroke-opacity:1; 
stroke-linecap:round; stroke-linejoin:round;">
</g>
<g style="fill:#840000; fill-opacity:0.0; 
stroke:#840000; stroke-width:60; stroke-opacity:1; 
stroke-linecap:round; stroke-linejoin:round;">
<polyline fill="none;"
points="78000,36500
78000,37000
78500,37000
78000,37500
77500,37000
78000,37000
" /> 
</g>
<g style="fill:#008484; fill-opacity:0.0; 
stroke:#008484; stroke-width:60; stroke-opacity:1; 
stroke-linecap:round; stroke-linejoin:round;">
<path d="M77430 38000
L77380 37970
L77310 37970
L77240 38000
L77190 38040
L77160 38090
L77140 38190
L77140 38260
L77160 38350
L77190 38400
L77240 38450
L77310 38470
L77350 38470
L77430 38450
L77450 38420
L77450 38260
L77350 38260
" />
<path d="M77660 38470
L77660 37970
L77950 38470
L77950 37970
" />
<path d="M78190 38470
L78190 37970
L78310 37970
L78380 38000
L78430 38040
L78450 38090
L78470 38190
L78470 38260
L78450 38350
L78430 38400
L78380 38450
L78310 38470
L78190 38470
" />
<path d="M78660 38450
L78740 38470
L78850 38470
L78900 38450
L78930 38420
L78950 38380
L78950 38330
L78930 38280
L78900 38260
L78850 38230
L78760 38210
L78710 38190
L78690 38160
L78660 38110
L78660 38070
L78690 38020
L78710 38000
L78760 37970
L78880 37970
L78950 38000
" />
</g>
<g style="fill:#008400; fill-opacity:0.0; 
stroke:#008400; stroke-width:60; stroke-opacity:1; 
stroke-linecap:round; stroke-linejoin:round;">
<path d="M78000 36500
L78000 36000
" />
<path d="M78000 36000
L76500 36000
" />
</g>
<g style="fill:#008400; fill-opacity:0.0; 
stroke:#008400; stroke-width:0; stroke-opacity:1; 
stroke-linecap:round; stroke-linejoin:round;">
</g>
<g style="fill:#008400; fill-opacity:1.0; 
stroke:#008400; stroke-width:100; stroke-opacity:1; 
stroke-linecap:round; stroke-linejoin:round;">
<circle cx="76500" cy="36000" r="200" /> 
</g>
<g style="fill:#008400; fill-opacity:1.0; 
stroke:#008400; stroke-width:60; stroke-opacity:1; 
stroke-linecap:round; stroke-linejoin:round;">
</g>
<g style="fill:#008400; fill-opacity:0.0; 
stroke:#008400; stroke-width:60; stroke-opacity:1; 
stroke-linecap:round; stroke-linejoin:round;">
<path d="M72500 30000
L76500 30000
" />
</g>
<g style="fill:#008400; fill-opacity:0.0; 
stroke:#008400; stroke-width:0; stroke-opacity:1; 
stroke-linecap:round; stroke-linejoin:round;">
</g> 
</svg>
